<svg width="203" height="44" viewBox="0 0 203 44" fill="none" xmlns="http://www.w3.org/2000/svg">
<path d="M0 39.1528C7.2079 39.1528 13.051 33.3096 13.051 26.1019C13.051 18.8939 7.2079 13.0508 0 13.0508V22.1864C2.16235 22.1864 3.91528 23.9394 3.91528 26.1019C3.91528 28.2642 2.16235 30.0171 0 30.0171V39.1528Z" fill="#FAFF00"/>
<path d="M43.5031 17.4021C41.2729 16.6956 38.8979 16.3145 36.4338 16.3145C23.5196 16.3145 13.0508 26.7835 13.0508 39.6975C13.0508 40.9938 13.1563 42.2654 13.359 43.5041H27.8877C27.3691 42.3413 27.0807 41.0532 27.0807 39.6975C27.0807 34.5319 31.2682 30.3443 36.4338 30.3443C39.2571 30.3443 41.7882 31.5952 43.5031 33.573V17.4021Z" fill="#F75858"/>
<path d="M2.29492 0C3.37694 9.78815 11.6754 17.4014 21.752 17.4014C31.8284 17.4014 40.127 9.78815 41.2089 0H27.2089C26.3446 2.16671 24.227 3.69777 21.752 3.69777C19.2768 3.69777 17.1594 2.16671 16.295 0H2.29492Z" fill="#C4FFAF"/>
<path d="M58.6445 8.84023H65.932C67.9029 8.84023 69.4154 8.99492 70.4695 9.3043C71.5352 9.61367 72.3315 10.0605 72.8586 10.6449C73.3971 11.2293 73.7581 11.9397 73.9414 12.7762C74.1362 13.6012 74.2336 14.8845 74.2336 16.6262V19.0496C74.2336 20.8256 74.0503 22.1204 73.6836 22.934C73.3169 23.7475 72.6409 24.372 71.6555 24.8074C70.6815 25.2428 69.4039 25.4605 67.8227 25.4605H65.8805V36.6668H58.6445V8.84023ZM65.8805 13.6012V20.6824C66.0867 20.6939 66.2643 20.6996 66.4133 20.6996C67.0779 20.6996 67.5362 20.5392 67.7883 20.2184C68.0518 19.8861 68.1836 19.2043 68.1836 18.173V15.8871C68.1836 14.9361 68.0346 14.3173 67.7367 14.0309C67.4388 13.7444 66.8201 13.6012 65.8805 13.6012Z" fill="#060C42"/>
<path d="M87.9148 8.84023L92.057 36.6668H84.6492L84.2883 31.6652H81.693L81.2633 36.6668H73.7695L77.4477 8.84023H87.9148ZM84.082 26.7324C83.7154 23.5814 83.3487 19.6913 82.982 15.0621C82.2487 20.3788 81.7904 24.2689 81.607 26.7324H84.082Z" fill="#060C42"/>
<path d="M109.451 8.84023V36.6668H103.109L99.3445 24.0168V36.6668H93.2945V8.84023H99.3445L103.401 21.3699V8.84023H109.451Z" fill="#060C42"/>
<path d="M124.868 8.84023L129.01 36.6668H121.602L121.241 31.6652H118.646L118.216 36.6668H110.723L114.401 8.84023H124.868ZM121.035 26.7324C120.669 23.5814 120.302 19.6913 119.935 15.0621C119.202 20.3788 118.744 24.2689 118.56 26.7324H121.035Z" fill="#060C42"/>
<path d="M130.248 8.84023H135.662C139.157 8.84023 141.517 9.00065 142.743 9.32148C143.98 9.64232 144.92 10.1694 145.562 10.9027C146.203 11.6361 146.604 12.4553 146.765 13.3605C146.925 14.2543 147.005 16.0189 147.005 18.6543V28.3996C147.005 30.8975 146.885 32.5704 146.645 33.4184C146.415 34.2548 146.009 34.9137 145.424 35.3949C144.84 35.8647 144.118 36.197 143.259 36.3918C142.399 36.5751 141.104 36.6668 139.374 36.6668H130.248V8.84023ZM137.484 13.6012V31.9059C138.526 31.9059 139.168 31.6996 139.409 31.2871C139.649 30.8631 139.77 29.723 139.77 27.8668V17.0559C139.77 15.7954 139.729 14.9876 139.649 14.6324C139.569 14.2772 139.386 14.0194 139.099 13.859C138.813 13.6871 138.274 13.6012 137.484 13.6012Z" fill="#060C42"/>
<path d="M166.238 25.134C166.238 27.9298 166.17 29.9121 166.032 31.0809C165.906 32.2381 165.494 33.298 164.795 34.2605C164.107 35.223 163.173 35.9621 161.993 36.4777C160.813 36.9934 159.438 37.2512 157.868 37.2512C156.378 37.2512 155.038 37.0105 153.846 36.5293C152.666 36.0366 151.715 35.3033 150.993 34.3293C150.271 33.3553 149.841 32.2954 149.704 31.1496C149.566 30.0038 149.498 27.9986 149.498 25.134V20.373C149.498 17.5772 149.561 15.6007 149.687 14.4434C149.824 13.2746 150.237 12.209 150.924 11.2465C151.623 10.284 152.563 9.54492 153.743 9.0293C154.923 8.51367 156.298 8.25586 157.868 8.25586C159.358 8.25586 160.692 8.50221 161.873 8.99492C163.064 9.47617 164.021 10.2038 164.743 11.1777C165.465 12.1517 165.895 13.2116 166.032 14.3574C166.17 15.5033 166.238 17.5085 166.238 20.373V25.134ZM159.002 15.9902C159.002 14.6954 158.928 13.8704 158.779 13.5152C158.641 13.1486 158.349 12.9652 157.902 12.9652C157.524 12.9652 157.232 13.1142 157.026 13.4121C156.831 13.6986 156.734 14.5579 156.734 15.9902V28.984C156.734 30.5996 156.797 31.5965 156.923 31.9746C157.06 32.3527 157.37 32.5418 157.851 32.5418C158.344 32.5418 158.659 32.3241 158.796 31.8887C158.934 31.4533 159.002 30.4163 159.002 28.7777V15.9902Z" fill="#060C42"/>
<path d="M183.615 8.84023L181.088 21.1465L184.904 36.6668H178.201C177.399 33.8939 176.665 30.5194 176.001 26.5434C175.817 28.2965 175.565 30.1585 175.245 32.1293L174.557 36.6668H167.51L170.123 21.1465L167.51 8.84023H174.505C174.632 9.60794 174.884 10.8855 175.262 12.673C175.56 14.0366 175.806 15.2855 176.001 16.4199L177.548 8.84023H183.615Z" fill="#060C42"/>
<path d="M202.091 8.84023V36.6668H195.749L191.985 24.0168V36.6668H185.935V8.84023H191.985L196.041 21.3699V8.84023H202.091Z" fill="#060C42"/>
</svg>
