<svg width="154" height="45" viewBox="0 0 154 45" fill="none" xmlns="http://www.w3.org/2000/svg">
<path d="M42.3428 14.3005C42.343 11.4572 41.4844 8.68017 39.8795 6.33312C38.2747 3.98606 35.9983 2.17842 33.3487 1.14699C30.6991 0.115544 27.7997 -0.0915988 25.0304 0.552673C22.261 1.19694 19.7508 2.6626 17.8285 4.75766H0V42.3862H37.6428V24.8005C39.1203 23.4791 40.3025 21.8609 41.1124 20.0517C41.9223 18.2424 42.3415 16.2828 42.3428 14.3005ZM35.1 14.3005C35.1028 15.6629 34.7014 16.9957 33.9465 18.1299C33.1915 19.2641 32.1173 20.1489 30.8593 20.6722C29.6013 21.1957 28.2164 21.3341 26.8797 21.0699C25.5431 20.8059 24.3148 20.1512 23.3504 19.1888C22.386 18.2264 21.7288 16.9995 21.462 15.6634C21.1951 14.3274 21.3307 12.9421 21.8514 11.6831C22.3721 10.424 23.2547 9.34779 24.3873 8.59054C25.52 7.8333 26.8518 7.4291 28.2143 7.42909C30.038 7.42909 31.7873 8.15259 33.0781 9.44082C34.3691 10.729 35.0963 12.4768 35.1 14.3005ZM30.4 35.1434H7.24286V12.0005H14.3C14.1637 12.7598 14.092 13.5292 14.0857 14.3005C14.0895 18.0465 15.5793 21.6379 18.2281 24.2868C20.8768 26.9355 24.4683 28.4254 28.2143 28.4291C28.9467 28.4252 29.6775 28.3631 30.4 28.2434V35.1434Z" fill="#2E3FD1"/>
<path d="M51.7375 8.2H59.2469L67.1781 27.55H67.5156L75.4469 8.2H82.9562V37H77.05V18.2547H76.8109L69.3578 36.8594H65.3359L57.8828 18.1844H57.6438V37H51.7375V8.2ZM94.0199 37.4078C92.6418 37.4078 91.4137 37.1688 90.3355 36.6906C89.2574 36.2031 88.4043 35.4859 87.7762 34.5391C87.1574 33.5828 86.848 32.3922 86.848 30.9672C86.848 29.7672 87.0684 28.7594 87.509 27.9438C87.9496 27.1281 88.5496 26.4719 89.309 25.975C90.0684 25.4781 90.9309 25.1031 91.8965 24.85C92.8715 24.5969 93.8934 24.4188 94.9621 24.3156C96.2184 24.1844 97.2309 24.0625 97.9996 23.95C98.7684 23.8281 99.3262 23.65 99.673 23.4156C100.02 23.1813 100.193 22.8344 100.193 22.375V22.2906C100.193 21.4 99.9121 20.7109 99.3496 20.2234C98.7965 19.7359 98.009 19.4922 96.9871 19.4922C95.909 19.4922 95.0512 19.7313 94.4137 20.2094C93.7762 20.6781 93.3543 21.2688 93.148 21.9813L87.6074 21.5313C87.8887 20.2187 88.4418 19.0844 89.2668 18.1281C90.0918 17.1625 91.1559 16.4219 92.459 15.9062C93.7715 15.3813 95.2902 15.1188 97.0152 15.1188C98.2152 15.1188 99.3637 15.2594 100.461 15.5406C101.567 15.8219 102.546 16.2578 103.4 16.8484C104.262 17.4391 104.942 18.1984 105.439 19.1266C105.936 20.0453 106.184 21.1469 106.184 22.4312V37H100.503V34.0047H100.334C99.9871 34.6797 99.523 35.275 98.9418 35.7906C98.3605 36.2969 97.6621 36.6953 96.8465 36.9859C96.0309 37.2672 95.0887 37.4078 94.0199 37.4078ZM95.7355 33.2734C96.6168 33.2734 97.3949 33.1 98.0699 32.7531C98.7449 32.3969 99.2746 31.9188 99.659 31.3188C100.043 30.7188 100.236 30.0391 100.236 29.2797V26.9875C100.048 27.1094 99.7902 27.2219 99.4621 27.325C99.1434 27.4188 98.7824 27.5078 98.3793 27.5922C97.9762 27.6672 97.573 27.7375 97.1699 27.8031C96.7668 27.8594 96.4012 27.9109 96.073 27.9578C95.3699 28.0609 94.7559 28.225 94.2309 28.45C93.7059 28.675 93.298 28.9797 93.0074 29.3641C92.7168 29.7391 92.5715 30.2078 92.5715 30.7703C92.5715 31.5859 92.8668 32.2094 93.4574 32.6406C94.0574 33.0625 94.8168 33.2734 95.7355 33.2734ZM128.804 21.5594L123.319 21.8969C123.225 21.4281 123.024 21.0062 122.714 20.6313C122.405 20.2469 121.997 19.9422 121.491 19.7172C120.994 19.4828 120.399 19.3656 119.705 19.3656C118.777 19.3656 117.994 19.5625 117.357 19.9562C116.719 20.3406 116.4 20.8562 116.4 21.5031C116.4 22.0187 116.607 22.4547 117.019 22.8109C117.432 23.1672 118.139 23.4531 119.143 23.6687L123.052 24.4563C125.152 24.8875 126.718 25.5812 127.749 26.5375C128.78 27.4937 129.296 28.75 129.296 30.3063C129.296 31.7219 128.879 32.9641 128.044 34.0328C127.219 35.1016 126.085 35.9359 124.641 36.5359C123.207 37.1266 121.552 37.4219 119.677 37.4219C116.818 37.4219 114.539 36.8266 112.843 35.6359C111.155 34.4359 110.166 32.8047 109.875 30.7422L115.768 30.4328C115.946 31.3047 116.377 31.9703 117.061 32.4297C117.746 32.8797 118.622 33.1047 119.691 33.1047C120.741 33.1047 121.585 32.9031 122.222 32.5C122.869 32.0875 123.197 31.5578 123.207 30.9109C123.197 30.3672 122.968 29.9219 122.518 29.575C122.068 29.2188 121.374 28.9469 120.436 28.7594L116.696 28.0141C114.586 27.5922 113.016 26.8609 111.985 25.8203C110.963 24.7797 110.452 23.4531 110.452 21.8406C110.452 20.4531 110.827 19.2578 111.577 18.2547C112.336 17.2516 113.4 16.4781 114.769 15.9344C116.147 15.3906 117.76 15.1188 119.607 15.1188C122.335 15.1188 124.482 15.6953 126.047 16.8484C127.622 18.0016 128.541 19.5719 128.804 21.5594ZM139.227 37.4078C137.849 37.4078 136.621 37.1688 135.543 36.6906C134.465 36.2031 133.612 35.4859 132.984 34.5391C132.365 33.5828 132.055 32.3922 132.055 30.9672C132.055 29.7672 132.276 28.7594 132.716 27.9438C133.157 27.1281 133.757 26.4719 134.516 25.975C135.276 25.4781 136.138 25.1031 137.104 24.85C138.079 24.5969 139.101 24.4188 140.17 24.3156C141.426 24.1844 142.438 24.0625 143.207 23.95C143.976 23.8281 144.534 23.65 144.88 23.4156C145.227 23.1813 145.401 22.8344 145.401 22.375V22.2906C145.401 21.4 145.12 20.7109 144.557 20.2234C144.004 19.7359 143.216 19.4922 142.195 19.4922C141.116 19.4922 140.259 19.7313 139.621 20.2094C138.984 20.6781 138.562 21.2688 138.355 21.9813L132.815 21.5313C133.096 20.2187 133.649 19.0844 134.474 18.1281C135.299 17.1625 136.363 16.4219 137.666 15.9062C138.979 15.3813 140.498 15.1188 142.223 15.1188C143.423 15.1188 144.571 15.2594 145.668 15.5406C146.774 15.8219 147.754 16.2578 148.607 16.8484C149.47 17.4391 150.149 18.1984 150.646 19.1266C151.143 20.0453 151.391 21.1469 151.391 22.4312V37H145.71V34.0047H145.541C145.195 34.6797 144.73 35.275 144.149 35.7906C143.568 36.2969 142.87 36.6953 142.054 36.9859C141.238 37.2672 140.296 37.4078 139.227 37.4078ZM140.943 33.2734C141.824 33.2734 142.602 33.1 143.277 32.7531C143.952 32.3969 144.482 31.9188 144.866 31.3188C145.251 30.7188 145.443 30.0391 145.443 29.2797V26.9875C145.255 27.1094 144.998 27.2219 144.67 27.325C144.351 27.4188 143.99 27.5078 143.587 27.5922C143.184 27.6672 142.78 27.7375 142.377 27.8031C141.974 27.8594 141.609 27.9109 141.28 27.9578C140.577 28.0609 139.963 28.225 139.438 28.45C138.913 28.675 138.505 28.9797 138.215 29.3641C137.924 29.7391 137.779 30.2078 137.779 30.7703C137.779 31.5859 138.074 32.2094 138.665 32.6406C139.265 33.0625 140.024 33.2734 140.943 33.2734Z" fill="#2E3FD1"/>
</svg>
