<svg width="200" height="37" viewBox="0 0 200 37" fill="none" xmlns="http://www.w3.org/2000/svg">
<path d="M36.167 5.71219C35.7365 5.28162 35.3059 4.85105 34.8753 4.42049C33.5836 3.04267 32.2058 1.66486 30.4836 0.80373C28.503 -0.22963 26.3501 0.0287024 24.1973 0.0287024C20.925 0.0287024 12.7442 0.0287024 7.92188 0.0287024L11.1942 4.42049C17.136 4.42049 26.4362 4.42049 30.7419 4.42049C32.5503 4.42049 34.1003 4.76494 35.5643 5.71219C35.8226 5.7983 36.0809 5.7983 36.167 5.71219Z" fill="#201B21"/>
<path d="M39.7844 12.7727C39.3539 12.3422 38.9233 11.9116 38.4927 11.481C37.201 10.1032 35.8232 8.7254 34.101 7.86427C32.1204 6.83091 29.9675 7.08925 27.8147 7.08925C24.973 7.08925 18.17 7.08925 13.3477 7.08925L16.62 11.481C22.4757 11.481 30.4842 11.481 34.4454 11.481C36.2538 11.481 37.8038 11.8255 39.2678 12.7727C39.44 12.8588 39.6122 12.8588 39.7844 12.7727Z" fill="#F1B87F"/>
<path d="M43.8308 19.6634C43.4002 19.2328 42.9697 18.8022 42.5391 18.3717C41.2474 16.9938 39.8696 15.616 38.1473 14.7549C36.1667 13.7215 34.0139 13.9799 31.8611 13.9799C29.1915 13.9799 23.3358 13.9799 18.5996 13.9799L21.8719 18.3717C27.5554 18.3717 34.7889 18.3717 38.4057 18.3717C40.2141 18.3717 41.7641 18.7161 43.228 19.6634C43.4863 19.7495 43.6586 19.8356 43.8308 19.6634Z" fill="#2ED197"/>
<path d="M7.57812 31.2872C8.00869 31.7178 8.43926 32.1484 8.86982 32.5789C10.1615 33.9568 11.5393 35.3346 13.2616 36.1957C15.2422 37.229 17.395 36.9707 19.5479 36.9707H35.8233L32.551 32.5789C26.6092 32.5789 17.3089 32.5789 13.0033 32.5789C11.1949 32.5789 9.64484 32.2345 8.18092 31.2872C7.92258 31.2011 7.75035 31.2011 7.57812 31.2872Z" fill="#F1B87F"/>
<path d="M3.96094 24.2267C4.3915 24.6573 4.82207 25.0878 5.25264 25.5184C6.54434 26.8962 7.92214 28.274 9.64441 29.1352C11.625 30.1685 13.7779 29.9102 15.9307 29.9102H30.3977L27.1254 25.5184C21.2697 25.5184 13.2612 25.5184 9.29996 25.5184C7.49158 25.5184 5.94154 25.1739 4.47761 24.2267C4.30538 24.1406 4.13316 24.1406 3.96094 24.2267Z" fill="#2ED197"/>
<path d="M0 17.2521C0.430567 17.6827 0.861133 18.1132 1.2917 18.5438C2.5834 19.9216 3.96122 21.2994 5.68348 22.1606C7.66409 23.1939 9.81691 22.9356 11.9697 22.9356H25.2312L21.9589 18.5438C16.2754 18.5438 9.0419 18.5438 5.42514 18.5438C3.61676 18.5438 2.06672 18.1993 0.602791 17.2521C0.344451 17.166 0.172227 17.166 0 17.2521Z" fill="#201B21"/>
<path d="M60.2265 27.9543V6.52572H53.6094V2.41143H71.4379V6.52572H64.9237V27.9543H60.2265Z" fill="#2ED197"/>
<path d="M74.7963 35.5314C74.2935 35.5314 73.8021 35.4857 73.3221 35.3943C72.8421 35.3257 72.4078 35.2 72.0192 35.0172V31.2457C72.3163 31.3143 72.6706 31.3829 73.0821 31.4514C73.5163 31.52 73.9163 31.5543 74.2821 31.5543C75.3106 31.5543 76.0535 31.3143 76.5106 30.8343C76.9906 30.3543 77.4135 29.7257 77.7792 28.9486L79.0135 26.0686L78.9449 29.84L70.8192 9.30286H75.6535L81.3449 24.4572H79.6306L85.2878 9.30286H90.1563L82.0306 29.84C81.5506 31.0514 80.9678 32.08 80.2821 32.9257C79.5963 33.7714 78.7963 34.4114 77.8821 34.8457C76.9906 35.3029 75.9621 35.5314 74.7963 35.5314Z" fill="#2ED197"/>
<path d="M97.6103 28.3657C96.3074 28.3657 95.176 28.1486 94.216 27.7143C93.256 27.28 92.5131 26.6629 91.9874 25.8629C91.4617 25.04 91.1988 24.0914 91.1988 23.0172C91.1988 21.9886 91.4274 21.0743 91.8846 20.2743C92.3417 19.4514 93.0503 18.7657 94.0103 18.2172C94.9703 17.6686 96.1817 17.28 97.6446 17.0514L103.747 16.0572V19.4857L98.5017 20.3771C97.6103 20.5371 96.9474 20.8229 96.5131 21.2343C96.0788 21.6457 95.8617 22.1829 95.8617 22.8457C95.8617 23.4857 96.1017 24 96.5817 24.3886C97.0846 24.7543 97.7017 24.9372 98.4331 24.9372C99.3703 24.9372 100.193 24.7429 100.902 24.3543C101.633 23.9429 102.193 23.3829 102.582 22.6743C102.993 21.9657 103.199 21.1886 103.199 20.3429V15.5429C103.199 14.7429 102.879 14.08 102.239 13.5543C101.622 13.0057 100.799 12.7314 99.7703 12.7314C98.8103 12.7314 97.9531 12.9943 97.1988 13.52C96.4674 14.0229 95.9303 14.6971 95.5874 15.5429L91.9188 13.76C92.2846 12.7771 92.856 11.9314 93.6331 11.2229C94.4331 10.4914 95.3703 9.92 96.4446 9.50857C97.5188 9.09715 98.6846 8.89143 99.9417 8.89143C101.473 8.89143 102.822 9.17714 103.987 9.74857C105.153 10.2971 106.056 11.0743 106.696 12.08C107.359 13.0629 107.69 14.2171 107.69 15.5429V27.9543H103.439V24.7657L104.399 24.6972C103.919 25.4972 103.347 26.1714 102.685 26.72C102.022 27.2457 101.267 27.6572 100.422 27.9543C99.576 28.2286 98.6388 28.3657 97.6103 28.3657Z" fill="#2ED197"/>
<path d="M117.499 28.3657C116.196 28.3657 115.064 28.1486 114.104 27.7143C113.144 27.28 112.402 26.6629 111.876 25.8629C111.35 25.04 111.087 24.0914 111.087 23.0172C111.087 21.9886 111.316 21.0743 111.773 20.2743C112.23 19.4514 112.939 18.7657 113.899 18.2172C114.859 17.6686 116.07 17.28 117.533 17.0514L123.636 16.0572V19.4857L118.39 20.3771C117.499 20.5371 116.836 20.8229 116.402 21.2343C115.967 21.6457 115.75 22.1829 115.75 22.8457C115.75 23.4857 115.99 24 116.47 24.3886C116.973 24.7543 117.59 24.9372 118.322 24.9372C119.259 24.9372 120.082 24.7429 120.79 24.3543C121.522 23.9429 122.082 23.3829 122.47 22.6743C122.882 21.9657 123.087 21.1886 123.087 20.3429V15.5429C123.087 14.7429 122.767 14.08 122.127 13.5543C121.51 13.0057 120.687 12.7314 119.659 12.7314C118.699 12.7314 117.842 12.9943 117.087 13.52C116.356 14.0229 115.819 14.6971 115.476 15.5429L111.807 13.76C112.173 12.7771 112.744 11.9314 113.522 11.2229C114.322 10.4914 115.259 9.92 116.333 9.50857C117.407 9.09715 118.573 8.89143 119.83 8.89143C121.362 8.89143 122.71 9.17714 123.876 9.74857C125.042 10.2971 125.944 11.0743 126.584 12.08C127.247 13.0629 127.579 14.2171 127.579 15.5429V27.9543H123.327V24.7657L124.287 24.6972C123.807 25.4972 123.236 26.1714 122.573 26.72C121.91 27.2457 121.156 27.6572 120.31 27.9543C119.464 28.2286 118.527 28.3657 117.499 28.3657Z" fill="#2ED197"/>
<path d="M131.73 27.9543V2H136.221V27.9543H131.73Z" fill="#2ED197"/>
<path d="M140.368 34.8114V9.30286H144.585V13.0057L144.174 12.08C144.814 11.0743 145.683 10.2971 146.78 9.74857C147.877 9.17714 149.145 8.89143 150.585 8.89143C152.345 8.89143 153.934 9.32572 155.351 10.1943C156.768 11.0629 157.888 12.2286 158.711 13.6914C159.557 15.1543 159.98 16.8 159.98 18.6286C159.98 20.4343 159.568 22.08 158.745 23.5657C157.923 25.0514 156.803 26.2286 155.385 27.0972C153.968 27.9429 152.357 28.3657 150.551 28.3657C149.203 28.3657 147.957 28.1029 146.814 27.5772C145.694 27.0286 144.803 26.2514 144.14 25.2457L144.86 24.3543V34.8114H140.368ZM150.037 24.2514C151.065 24.2514 151.98 24.0114 152.78 23.5314C153.58 23.0514 154.197 22.3886 154.631 21.5429C155.088 20.6971 155.317 19.7257 155.317 18.6286C155.317 17.5314 155.088 16.5714 154.631 15.7486C154.197 14.9029 153.58 14.24 152.78 13.76C151.98 13.2571 151.065 13.0057 150.037 13.0057C149.054 13.0057 148.163 13.2457 147.363 13.7257C146.585 14.2057 145.968 14.88 145.511 15.7486C145.077 16.5943 144.86 17.5543 144.86 18.6286C144.86 19.7257 145.077 20.6971 145.511 21.5429C145.968 22.3886 146.585 23.0514 147.363 23.5314C148.163 24.0114 149.054 24.2514 150.037 24.2514Z" fill="#2ED197"/>
<path d="M163.404 27.9543V2H167.895V12.9714L167.278 12.32C167.713 11.2 168.421 10.3543 169.404 9.78286C170.41 9.18857 171.575 8.89143 172.901 8.89143C174.273 8.89143 175.484 9.18857 176.535 9.78286C177.61 10.3771 178.444 11.2114 179.038 12.2857C179.633 13.3371 179.93 14.56 179.93 15.9543V27.9543H175.438V17.0171C175.438 16.1943 175.278 15.4857 174.958 14.8914C174.638 14.2971 174.193 13.84 173.621 13.52C173.073 13.1771 172.421 13.0057 171.667 13.0057C170.935 13.0057 170.284 13.1771 169.713 13.52C169.141 13.84 168.695 14.2971 168.375 14.8914C168.055 15.4857 167.895 16.1943 167.895 17.0171V27.9543H163.404Z" fill="#2ED197"/>
<path d="M189.385 28.3657C188.082 28.3657 186.951 28.1486 185.991 27.7143C185.031 27.28 184.288 26.6629 183.762 25.8629C183.236 25.04 182.973 24.0914 182.973 23.0172C182.973 21.9886 183.202 21.0743 183.659 20.2743C184.116 19.4514 184.825 18.7657 185.785 18.2172C186.745 17.6686 187.956 17.28 189.419 17.0514L195.522 16.0572V19.4857L190.276 20.3771C189.385 20.5371 188.722 20.8229 188.288 21.2343C187.853 21.6457 187.636 22.1829 187.636 22.8457C187.636 23.4857 187.876 24 188.356 24.3886C188.859 24.7543 189.476 24.9372 190.208 24.9372C191.145 24.9372 191.968 24.7429 192.676 24.3543C193.408 23.9429 193.968 23.3829 194.356 22.6743C194.768 21.9657 194.973 21.1886 194.973 20.3429V15.5429C194.973 14.7429 194.653 14.08 194.013 13.5543C193.396 13.0057 192.573 12.7314 191.545 12.7314C190.585 12.7314 189.728 12.9943 188.973 13.52C188.242 14.0229 187.705 14.6971 187.362 15.5429L183.693 13.76C184.059 12.7771 184.631 11.9314 185.408 11.2229C186.208 10.4914 187.145 9.92 188.219 9.50857C189.293 9.09715 190.459 8.89143 191.716 8.89143C193.248 8.89143 194.596 9.17714 195.762 9.74857C196.928 10.2971 197.831 11.0743 198.471 12.08C199.133 13.0629 199.465 14.2171 199.465 15.5429V27.9543H195.213V24.7657L196.173 24.6972C195.693 25.4972 195.122 26.1714 194.459 26.72C193.796 27.2457 193.042 27.6572 192.196 27.9543C191.351 28.2286 190.413 28.3657 189.385 28.3657Z" fill="#2ED197"/>
</svg>
