<svg width="212" height="45" viewBox="0 0 212 45" fill="none" xmlns="http://www.w3.org/2000/svg">
<path d="M51 10.75L42.2571 0H19.8536L28.5964 10.75L19.8536 21.5L11.1107 10.75L19.8536 0H8.74285L0 10.75L8.74285 21.5L0 32.25L8.74285 43H31.2375L22.4036 32.25L31.2375 21.5L39.9804 32.25L31.2375 43H42.2571L51 32.25L42.2571 21.5L51 10.75Z" fill="#201B21"/>
<path d="M64.167 34.6133V7.67832C64.167 7.40762 64.2959 7.27227 64.5537 7.27227H75.0531C78.2758 7.27227 80.7314 7.92969 82.4201 9.24453C84.1088 10.5465 84.9531 12.4027 84.9531 14.8133C84.9531 16.2055 84.5535 17.4494 83.7543 18.5451C82.968 19.6408 81.782 20.3756 80.1965 20.7494C82.3621 21.1104 83.9605 21.8902 84.9918 23.0891C86.023 24.275 86.5387 25.6736 86.5387 27.285C86.5387 29.76 85.7008 31.6678 84.025 33.0084C82.3492 34.3361 79.8871 35 76.6387 35H64.5537C64.2959 35 64.167 34.8711 64.167 34.6133ZM76.6387 32.235C80.8668 32.235 82.9809 30.585 82.9809 27.285C82.9809 23.985 80.8668 22.335 76.6387 22.335H67.7248V32.235H76.6387ZM67.7248 19.5506H75.4398C77.2703 19.5506 78.7205 19.151 79.7904 18.3518C80.8604 17.5396 81.3953 16.3602 81.3953 14.8133C81.3953 13.2535 80.841 12.074 79.7324 11.2748C78.6238 10.4627 77.0641 10.0566 75.0531 10.0566H67.7248V19.5506ZM92.4941 8.06504C92.4941 7.53652 92.7584 7.27227 93.2869 7.27227H95.8586C96.1551 7.27227 96.3613 7.33672 96.4773 7.46563C96.5934 7.58164 96.6514 7.78145 96.6514 8.06504V10.6367C96.6514 10.9332 96.5934 11.1395 96.4773 11.2555C96.3613 11.3715 96.1551 11.4295 95.8586 11.4295H93.2869C93.0033 11.4295 92.7971 11.3715 92.6682 11.2555C92.5521 11.1395 92.4941 10.9332 92.4941 10.6367V8.06504ZM92.7842 34.6133V14.2139C92.7842 13.9432 92.9131 13.8078 93.1709 13.8078H95.9359C96.2066 13.8078 96.342 13.9432 96.342 14.2139V34.6133C96.342 34.8711 96.2066 35 95.9359 35H93.1709C92.9131 35 92.7842 34.8711 92.7842 34.6133ZM112.7 33.6078C109.774 33.6078 107.357 32.699 105.449 30.8814C103.554 29.0639 102.607 26.5824 102.607 23.4371C102.607 20.2918 103.561 17.8039 105.469 15.9734C107.389 14.143 109.864 13.2277 112.894 13.2277C114.582 13.2277 116.206 13.4275 117.766 13.8271C119.326 14.2139 120.447 14.607 121.131 15.0066L122.213 15.5867V32.6217C122.213 38.9639 118.913 42.135 112.313 42.135C109.774 42.135 107.737 41.6 106.203 40.5301C104.669 39.4602 103.799 38.01 103.593 36.1795C103.567 35.9217 103.703 35.7928 103.999 35.7928H106.493C106.725 35.7928 106.88 35.9217 106.957 36.1795C107.28 37.1334 107.892 37.9004 108.794 38.4805C109.71 39.0605 110.883 39.3506 112.313 39.3506C114.505 39.3506 116.103 38.8156 117.109 37.7457C118.127 36.6758 118.636 34.9678 118.636 32.6217V32.4283C116.922 33.2146 114.943 33.6078 112.7 33.6078ZM113.3 15.9928C111.16 15.9928 109.432 16.6502 108.118 17.965C106.816 19.267 106.165 21.0975 106.165 23.4564C106.165 25.8154 106.809 27.6395 108.098 28.9285C109.4 30.2047 111.05 30.8428 113.048 30.8428C115.059 30.8428 116.922 30.4496 118.636 29.6633V17.1723C118.636 17.1465 118.411 17.0434 117.96 16.8629C117.521 16.6824 116.851 16.4955 115.949 16.3021C115.046 16.0959 114.163 15.9928 113.3 15.9928ZM128.556 31.8289C128.556 31.3004 128.82 31.0361 129.348 31.0361H131.92C132.217 31.0361 132.423 31.1006 132.539 31.2295C132.655 31.3455 132.713 31.5453 132.713 31.8289V34.4006C132.713 34.6971 132.655 34.9033 132.539 35.0193C132.423 35.1354 132.217 35.1934 131.92 35.1934H129.348C129.065 35.1934 128.859 35.1354 128.73 35.0193C128.614 34.9033 128.556 34.6971 128.556 34.4006V31.8289ZM139.461 34.6133V7.67832C139.461 7.42051 139.59 7.28516 139.848 7.27227H148.955C153.067 7.27227 156.374 8.50977 158.874 10.9848C161.375 13.4469 162.626 16.8307 162.626 21.1361C162.626 25.4416 161.375 28.8318 158.874 31.3068C156.387 33.7689 153.08 35 148.955 35H139.848C139.59 35 139.461 34.8711 139.461 34.6133ZM143.019 32.235H148.955C151.959 32.235 154.395 31.2939 156.264 29.4119C158.133 27.517 159.068 24.7648 159.068 21.1555C159.068 17.5332 158.133 14.7811 156.264 12.899C154.408 11.0041 151.971 10.0566 148.955 10.0566H143.019V32.235ZM169.219 33.8012C167.737 32.5895 166.996 30.9459 166.996 28.8705C166.996 26.7822 167.756 25.1387 169.277 23.9398C170.811 22.7281 172.951 22.1223 175.697 22.1223H182.445V21.9289C182.445 17.9715 180.46 15.9928 176.489 15.9928C175.252 15.9928 174.195 16.2893 173.318 16.8822C172.455 17.4752 171.862 18.2357 171.539 19.1639C171.462 19.4217 171.307 19.5506 171.075 19.5506H168.581C168.285 19.5506 168.149 19.4217 168.175 19.1639C168.381 17.3721 169.232 15.9348 170.727 14.852C172.223 13.7691 174.143 13.2277 176.489 13.2277C179.557 13.2277 181.91 13.9883 183.547 15.5094C185.184 17.0176 186.003 19.1574 186.003 21.9289V34.6133C186.003 34.8711 185.867 35 185.597 35H183.431C183.173 35 183.025 34.8711 182.986 34.6133L182.638 32.4283C182.484 32.6732 182.142 33.0148 181.613 33.4531C181.085 33.8785 180.556 34.2266 180.028 34.4973C178.636 35.232 177.063 35.5994 175.31 35.5994C172.745 35.5994 170.714 35 169.219 33.8012ZM170.553 28.8705C170.553 30.1596 170.979 31.1393 171.829 31.8096C172.693 32.4799 173.918 32.815 175.503 32.815C176.354 32.815 177.173 32.6732 177.959 32.3896C178.758 32.0932 179.409 31.7516 179.912 31.3648C180.428 30.9652 180.885 30.5592 181.285 30.1467C181.684 29.7342 181.974 29.3926 182.155 29.1219C182.348 28.8383 182.445 28.6836 182.445 28.6578V24.9066H175.697C172.268 24.9066 170.553 26.2279 170.553 28.8705ZM189.812 14.2139C189.786 14.1623 189.773 14.1107 189.773 14.0592C189.773 13.8916 189.889 13.8078 190.121 13.8078H192.79C193.099 13.8078 193.292 13.9432 193.37 14.2139L197.778 26.8789C198.358 28.516 199.022 29.6891 199.77 30.398C200.518 31.0941 201.542 31.4422 202.844 31.4422L207.388 14.2139C207.466 13.9432 207.665 13.8078 207.988 13.8078H210.637C210.882 13.8078 211.004 13.8916 211.004 14.0592C211.004 14.1107 210.991 14.1623 210.965 14.2139L205.687 34.2072C204.952 36.9787 203.972 38.9896 202.748 40.24C201.536 41.5033 199.944 42.135 197.972 42.135C196.592 42.135 195.323 41.9352 194.162 41.5355L193.621 41.3422C193.35 41.2004 193.215 41.0264 193.215 40.8201V38.8865C193.215 38.5643 193.35 38.4547 193.621 38.5578C194.936 39.0863 196.225 39.3506 197.488 39.3506C198.764 39.3506 199.738 38.9832 200.408 38.2484C201.078 37.5137 201.652 36.1666 202.129 34.2072C200.066 34.2072 198.468 33.6658 197.334 32.583C196.199 31.5002 195.155 29.5859 194.201 26.8402L189.812 14.2139Z" fill="#2E3FD1"/>
</svg>
