<svg width="188" height="51" viewBox="0 0 188 51" fill="none" xmlns="http://www.w3.org/2000/svg">
<path d="M35.3992 30.4996L42.3992 23.4996C42.3992 18.6996 41.1992 14.0996 38.9992 10.0996L22.6992 25.1996V50.2996H25.7992C36.6992 50.2996 45.5992 41.4996 45.5992 30.4996H35.3992Z" fill="#F0FF49"/>
<path d="M10.2 19.8L3.2 26.8C3.2 31.6 4.4 36.2 6.6 40.2L22.9 25.1V0H19.8C8.9 0 0 8.8 0 19.8H10.2V19.8Z" fill="#201B21"/>
<path d="M82.5252 32.5233L81.8477 36.3905H70.0643L70.7419 32.5233H82.5252ZM75.832 12.328L71.6508 36.3905H66.8086L70.9733 12.328H75.832Z" fill="#060C42"/>
<path d="M102.671 22.1282L101.993 25.9953H89.7803L90.4579 22.1282H102.671ZM93.6145 12.328L89.4333 36.3905H84.591L88.7557 12.328H93.6145ZM107.794 12.328L103.613 36.3905H98.8038L102.968 12.328H107.794Z" fill="#060C42"/>
<path d="M108.141 34.1759C108.13 33.4267 108.378 32.8097 108.885 32.325C109.403 31.8402 110.031 31.5978 110.769 31.5978C111.474 31.5868 112.08 31.8071 112.587 32.2589C113.105 32.6996 113.369 33.2835 113.38 34.0107C113.391 34.7599 113.138 35.3769 112.62 35.8616C112.113 36.3464 111.491 36.5888 110.752 36.5888C110.047 36.5998 109.436 36.385 108.918 35.9443C108.411 35.4925 108.152 34.9031 108.141 34.1759Z" fill="#060C42"/>
<path d="M131.956 12.328L127.791 36.3905H122.949L127.13 12.328H131.956ZM139.128 12.328L138.451 16.2117H119.396L120.073 12.328H139.128Z" fill="#060C42"/>
<path d="M144.235 36.721C143.012 36.699 141.91 36.4676 140.93 36.0269C139.949 35.5752 139.128 34.9582 138.467 34.1759C137.817 33.3937 137.338 32.4847 137.029 31.4491C136.721 30.4134 136.611 29.3006 136.699 28.1107L136.765 27.4331C136.897 26.1882 137.2 25.0038 137.674 23.88C138.148 22.7562 138.781 21.7646 139.575 20.9052C140.368 20.0348 141.304 19.3572 142.384 18.8724C143.475 18.3767 144.687 18.1453 146.02 18.1783C147.265 18.2004 148.328 18.4538 149.209 18.9386C150.091 19.4233 150.801 20.0734 151.341 20.8887C151.881 21.704 152.25 22.635 152.449 23.6816C152.647 24.7173 152.685 25.8025 152.564 26.9373L152.3 28.9205H138.484L138.996 25.7474L148.119 25.764L148.201 25.3508C148.289 24.7448 148.262 24.1829 148.119 23.6651C147.975 23.1363 147.706 22.7121 147.309 22.3926C146.912 22.0731 146.383 21.9023 145.722 21.8803C144.962 21.8582 144.323 22.018 143.805 22.3595C143.287 22.7011 142.863 23.1528 142.533 23.7147C142.202 24.2766 141.949 24.8881 141.773 25.5491C141.596 26.1992 141.47 26.8272 141.392 27.4331L141.326 28.0942C141.271 28.6781 141.288 29.2621 141.376 29.846C141.464 30.4189 141.635 30.9367 141.888 31.3995C142.153 31.8622 142.511 32.2368 142.962 32.5233C143.425 32.8097 144.004 32.964 144.698 32.986C145.579 33.0081 146.389 32.8373 147.127 32.4737C147.876 32.0991 148.548 31.6033 149.143 30.9863L151.226 33.4983C150.73 34.2475 150.096 34.8645 149.325 35.3493C148.565 35.8231 147.744 36.1701 146.863 36.3905C145.981 36.6218 145.105 36.732 144.235 36.721Z" fill="#060C42"/>
<path d="M161.422 33.0191C162.006 33.0301 162.524 32.9199 162.976 32.6886C163.439 32.4572 163.819 32.1322 164.116 31.7135C164.414 31.2948 164.612 30.81 164.711 30.2592L169.091 30.2426C168.992 31.5758 168.562 32.7326 167.802 33.7132C167.052 34.6938 166.099 35.4485 164.943 35.9773C163.797 36.5062 162.579 36.7541 161.29 36.721C160.001 36.699 158.894 36.4401 157.968 35.9443C157.054 35.4485 156.316 34.7874 155.754 33.9611C155.192 33.1237 154.795 32.1707 154.564 31.102C154.344 30.0333 154.289 28.9095 154.399 27.7306L154.448 27.2348C154.581 26.0009 154.878 24.833 155.341 23.7312C155.803 22.6184 156.42 21.6434 157.192 20.806C157.974 19.9577 158.894 19.3021 159.952 18.8394C161.009 18.3656 162.205 18.1453 163.538 18.1783C164.915 18.2004 166.094 18.5144 167.075 19.1203C168.055 19.7153 168.799 20.5306 169.306 21.5663C169.823 22.6019 170.071 23.7918 170.049 25.136L165.686 25.1194C165.697 24.5796 165.626 24.0673 165.471 23.5825C165.317 23.0867 165.053 22.6901 164.678 22.3926C164.315 22.0841 163.819 21.9133 163.191 21.8803C162.453 21.8582 161.836 22.0125 161.34 22.343C160.844 22.6625 160.442 23.0977 160.133 23.6486C159.825 24.1885 159.588 24.7779 159.423 25.4169C159.257 26.0449 159.142 26.6564 159.076 27.2514L159.043 27.7306C158.988 28.2264 158.955 28.7773 158.943 29.3833C158.932 29.9782 158.993 30.5511 159.125 31.102C159.257 31.6419 159.5 32.0936 159.852 32.4572C160.216 32.8097 160.739 32.997 161.422 33.0191Z" fill="#060C42"/>
<path d="M179.651 11.0059L175.239 36.3905H170.595L175.007 11.0059H179.651ZM176.28 26.8217L175.073 26.8382C175.194 25.8246 175.431 24.7999 175.784 23.7643C176.148 22.7286 176.638 21.7866 177.255 20.9383C177.872 20.0789 178.626 19.3958 179.519 18.889C180.422 18.3711 181.469 18.1288 182.659 18.1618C183.662 18.1838 184.493 18.3877 185.154 18.7733C185.827 19.1479 186.35 19.6602 186.724 20.3102C187.099 20.9493 187.347 21.6819 187.468 22.5083C187.589 23.3236 187.6 24.1829 187.501 25.0864L185.617 36.3905H180.94L182.857 25.0368C182.923 24.4529 182.907 23.9295 182.808 23.4668C182.72 22.993 182.505 22.6184 182.163 22.343C181.833 22.0565 181.342 21.9078 180.692 21.8968C179.976 21.8747 179.359 22.0015 178.841 22.2769C178.335 22.5523 177.905 22.9324 177.552 23.4172C177.2 23.891 176.924 24.4253 176.726 25.0203C176.528 25.6042 176.379 26.2047 176.28 26.8217Z" fill="#060C42"/>
</svg>
