<svg width="199" height="48" viewBox="0 0 199 48" fill="none" xmlns="http://www.w3.org/2000/svg">
<path d="M21.8578 0H51.5883L29.7305 32.3977H0L21.8578 0Z" fill="url(#paint0_linear_7026_22770)"/>
<path d="M23.1594 35.4L14.6934 47.9484H45.8341L67.6919 15.5508H44.7081L31.3163 35.4H23.1594Z" fill="#AD95E0"/>
<path d="M93.7381 31.701L93.0605 35.5682H81.2772L81.9548 31.701H93.7381ZM87.0449 11.5057L82.8637 35.5682H78.0215L82.1861 11.5057H87.0449Z" fill="#060C42"/>
<path d="M113.884 21.3059L113.206 25.1731H100.993L101.671 21.3059H113.884ZM104.827 11.5057L100.646 35.5682H95.8039L99.9686 11.5057H104.827ZM119.007 11.5057L114.826 35.5682H110.017L114.181 11.5057H119.007Z" fill="#060C42"/>
<path d="M119.354 33.3537C119.343 32.6045 119.591 31.9875 120.098 31.5027C120.616 31.0179 121.244 30.7755 121.982 30.7755C122.687 30.7645 123.293 30.9849 123.8 31.4366C124.318 31.8773 124.582 32.4612 124.593 33.1884C124.604 33.9376 124.351 34.5546 123.833 35.0394C123.326 35.5241 122.703 35.7665 121.965 35.7665C121.26 35.7775 120.649 35.5627 120.131 35.122C119.624 34.6703 119.365 34.0808 119.354 33.3537Z" fill="#060C42"/>
<path d="M143.169 11.5057L139.004 35.5682H134.162L138.343 11.5057H143.169ZM150.341 11.5057L149.664 15.3894H130.609L131.286 11.5057H150.341Z" fill="#060C42"/>
<path d="M155.448 35.8987C154.225 35.8767 153.123 35.6453 152.143 35.2046C151.162 34.7529 150.341 34.1359 149.68 33.3537C149.03 32.5714 148.551 31.6625 148.242 30.6268C147.934 29.5911 147.824 28.4784 147.912 27.2885L147.978 26.6109C148.11 25.3659 148.413 24.1815 148.887 23.0577C149.361 21.9339 149.994 20.9423 150.787 20.0829C151.581 19.2125 152.517 18.535 153.597 18.0502C154.688 17.5544 155.9 17.323 157.233 17.3561C158.478 17.3781 159.541 17.6315 160.422 18.1163C161.304 18.6011 162.014 19.2511 162.554 20.0664C163.094 20.8817 163.463 21.8127 163.661 22.8594C163.86 23.895 163.898 24.9803 163.777 26.1151L163.513 28.0983H149.697L150.209 24.9252L159.332 24.9417L159.414 24.5285C159.502 23.9226 159.475 23.3607 159.332 22.8428C159.188 22.314 158.918 21.8898 158.522 21.5703C158.125 21.2508 157.596 21.08 156.935 21.058C156.175 21.036 155.536 21.1957 155.018 21.5373C154.5 21.8788 154.076 22.3305 153.746 22.8924C153.415 23.4543 153.162 24.0658 152.985 24.7269C152.809 25.3769 152.682 26.0049 152.605 26.6109L152.539 27.2719C152.484 27.8559 152.501 28.4398 152.589 29.0237C152.677 29.5967 152.848 30.1145 153.101 30.5772C153.366 31.04 153.724 31.4146 154.175 31.701C154.638 31.9875 155.216 32.1417 155.911 32.1638C156.792 32.1858 157.602 32.015 158.34 31.6514C159.089 31.2768 159.761 30.781 160.356 30.1641L162.439 32.6761C161.943 33.4253 161.309 34.0423 160.538 34.527C159.778 35.0008 158.957 35.3479 158.076 35.5682C157.194 35.7996 156.318 35.9098 155.448 35.8987Z" fill="#060C42"/>
<path d="M172.635 32.1968C173.219 32.2078 173.737 32.0977 174.189 31.8663C174.652 31.6349 175.032 31.3099 175.329 30.8912C175.627 30.4726 175.825 29.9878 175.924 29.4369L180.304 29.4204C180.204 30.7535 179.775 31.9104 179.015 32.8909C178.265 33.8715 177.312 34.6262 176.155 35.155C175.01 35.6839 173.792 35.9318 172.503 35.8987C171.214 35.8767 170.107 35.6178 169.181 35.122C168.267 34.6262 167.529 33.9651 166.967 33.1388C166.405 32.3015 166.008 31.3485 165.777 30.2797C165.557 29.211 165.501 28.0872 165.612 26.9084L165.661 26.4126C165.793 25.1786 166.091 24.0107 166.554 22.909C167.016 21.7962 167.633 20.8211 168.405 19.9838C169.187 19.1354 170.107 18.4799 171.164 18.0171C172.222 17.5434 173.418 17.323 174.751 17.3561C176.128 17.3781 177.307 17.6921 178.287 18.2981C179.268 18.893 180.012 19.7083 180.518 20.744C181.036 21.7796 181.284 22.9696 181.262 24.3137L176.899 24.2972C176.91 23.7573 176.839 23.245 176.684 22.7602C176.53 22.2644 176.266 21.8678 175.891 21.5703C175.527 21.2618 175.032 21.091 174.404 21.058C173.665 21.036 173.049 21.1902 172.553 21.5207C172.057 21.8402 171.655 22.2754 171.346 22.8263C171.038 23.3662 170.801 23.9556 170.636 24.5947C170.47 25.2227 170.355 25.8341 170.289 26.4291L170.256 26.9084C170.2 27.4041 170.167 27.955 170.156 28.561C170.145 29.1559 170.206 29.7289 170.338 30.2797C170.47 30.8196 170.713 31.2713 171.065 31.6349C171.429 31.9875 171.952 32.1748 172.635 32.1968Z" fill="#060C42"/>
<path d="M190.864 10.1836L186.451 35.5682H181.808L186.22 10.1836H190.864ZM187.493 25.9994L186.286 26.0159C186.407 25.0023 186.644 23.9777 186.997 22.942C187.36 21.9063 187.851 20.9643 188.468 20.116C189.085 19.2566 189.839 18.5735 190.732 18.0667C191.635 17.5489 192.682 17.3065 193.872 17.3395C194.874 17.3616 195.706 17.5654 196.367 17.951C197.039 18.3256 197.563 18.8379 197.937 19.488C198.312 20.127 198.56 20.8597 198.681 21.686C198.802 22.5013 198.813 23.3607 198.714 24.2641L196.83 35.5682H192.153L194.07 24.2145C194.136 23.6306 194.12 23.1073 194.021 22.6445C193.932 22.1708 193.718 21.7962 193.376 21.5207C193.046 21.2343 192.555 21.0855 191.905 21.0745C191.189 21.0525 190.572 21.1792 190.054 21.4546C189.547 21.7301 189.118 22.1102 188.765 22.595C188.413 23.0687 188.137 23.6031 187.939 24.198C187.741 24.782 187.592 25.3824 187.493 25.9994Z" fill="#060C42"/>
<defs>
<linearGradient id="paint0_linear_7026_22770" x1="0.527474" y1="32.3977" x2="33.9925" y2="45.6381" gradientUnits="userSpaceOnUse">
<stop stop-color="#437AFB"/>
<stop offset="1" stop-color="#19CDF1"/>
</linearGradient>
</defs>
</svg>
