<svg width="190" height="44" viewBox="0 0 190 44" fill="none" xmlns="http://www.w3.org/2000/svg">
<path fill-rule="evenodd" clip-rule="evenodd" d="M9.50999 3.91891C7.9192 5.00853 6.48071 6.29682 5.23196 7.74705C10.3349 7.28296 16.818 8.04076 24.3449 11.7274C32.3825 15.6641 38.8548 15.7972 43.3592 14.9461C42.9505 13.7339 42.4359 12.5688 41.8264 11.4613C36.6701 11.994 30.0597 11.2889 22.3559 7.51567C17.4638 5.11958 13.1516 4.13255 9.50999 3.91891ZM38.8143 7.26152C34.7424 2.80477 28.8248 0 22.2384 0C20.3042 0 18.4275 0.241926 16.6385 0.696542C19.0616 1.3442 21.6357 2.29173 24.3449 3.61872C29.9852 6.38129 34.8548 7.27079 38.8143 7.26152ZM44.3223 19.2011C38.8805 20.2537 31.366 20.0375 22.3559 15.6243C13.9324 11.4986 7.22799 11.5505 2.70631 12.5349C2.47292 12.5856 2.24502 12.639 2.02262 12.6945C1.43062 13.9558 0.958072 15.282 0.61901 16.6592C0.981146 16.5645 1.35536 16.4744 1.74145 16.3903C7.22703 15.1962 14.9777 15.248 24.3449 19.8361C32.7685 23.9619 39.4728 23.9099 43.9946 22.9256C44.1495 22.8919 44.3021 22.8571 44.4522 22.8211C44.4687 22.4777 44.4769 22.1321 44.4769 21.7846C44.4769 20.9105 44.4244 20.0484 44.3223 19.2011ZM43.7262 27.4184C38.3372 28.3413 31.0415 27.9871 22.3559 23.733C13.9324 19.6072 7.22799 19.6592 2.70631 20.6435C1.70263 20.8619 0.799739 21.128 0.00325794 21.4089C0.00108635 21.5339 0 21.6591 0 21.7846C0 33.8159 9.95649 43.5692 22.2384 43.5692C32.5316 43.5692 41.1915 36.719 43.7262 27.4184Z" fill="#8D2F8A"/>
<path d="M69.3264 31.0977C67.6917 31.0977 66.1721 30.7984 64.7676 30.1997C63.3861 29.6011 62.1889 28.7722 61.1758 27.7131C60.1858 26.631 59.4605 25.3761 59 23.9486L62.9026 22.2563C63.5243 23.7299 64.4222 24.8926 65.5965 25.7445C66.7707 26.5734 68.0946 26.9878 69.5682 26.9878C70.3971 26.9878 71.1108 26.8612 71.7095 26.6079C72.3311 26.3316 72.8031 25.9633 73.1255 25.5028C73.4708 25.0423 73.6435 24.4897 73.6435 23.845C73.6435 23.0852 73.4133 22.4636 72.9528 21.98C72.5153 21.4735 71.8476 21.0821 70.9497 20.8058L66.0109 19.2171C64.0078 18.5955 62.4997 17.663 61.4866 16.4196C60.4736 15.1763 59.967 13.7143 59.967 12.0335C59.967 10.5599 60.3239 9.25906 61.0377 8.13087C61.7744 7.00267 62.7875 6.12775 64.0769 5.50609C65.3893 4.8614 66.8859 4.53906 68.5666 4.53906C70.1093 4.53906 71.5253 4.81536 72.8146 5.36794C74.104 5.8975 75.2092 6.64579 76.1301 7.61282C77.0741 8.55682 77.7764 9.6735 78.2369 10.9629L74.3688 12.6897C73.8622 11.4003 73.1024 10.4103 72.0894 9.71955C71.0763 9.00579 69.902 8.64892 68.5666 8.64892C67.7838 8.64892 67.0931 8.78706 66.4944 9.06335C65.8958 9.31662 65.4238 9.68501 65.0784 10.1685C64.7561 10.629 64.5949 11.1816 64.5949 11.8263C64.5949 12.54 64.8252 13.1732 65.2857 13.7258C65.7461 14.2554 66.4484 14.6698 67.3924 14.9691L72.1239 16.4542C74.1731 17.1219 75.7042 18.0429 76.7173 19.2171C77.7534 20.3914 78.2714 21.8419 78.2714 23.5687C78.2714 25.0423 77.8915 26.3432 77.1317 27.4714C76.3719 28.5996 75.3243 29.486 73.9889 30.1307C72.6535 30.7754 71.0993 31.0977 69.3264 31.0977Z" fill="#121212"/>
<path d="M82.1209 30.6833V4.53906H86.6452V15.5908L86.0235 14.9346C86.461 13.8064 87.1747 12.9545 88.1648 12.3789C89.1779 11.7802 90.3521 11.4809 91.6875 11.4809C93.069 11.4809 94.2893 11.7802 95.3484 12.3789C96.4305 12.9775 97.2709 13.8179 97.8696 14.9C98.4682 15.9592 98.7675 17.191 98.7675 18.5955V30.6833H94.2432V19.6661C94.2432 18.8372 94.0821 18.1235 93.7597 17.5248C93.4374 16.9262 92.9884 16.4657 92.4128 16.1434C91.8602 15.798 91.204 15.6253 90.4442 15.6253C89.7074 15.6253 89.0512 15.798 88.4756 16.1434C87.9 16.4657 87.451 16.9262 87.1287 17.5248C86.8063 18.1235 86.6452 18.8372 86.6452 19.6661V30.6833H82.1209Z" fill="#121212"/>
<path d="M108.292 31.0977C106.979 31.0977 105.84 30.879 104.873 30.4415C103.906 30.004 103.157 29.3824 102.628 28.5765C102.098 27.7476 101.833 26.7921 101.833 25.71C101.833 24.6739 102.064 23.7529 102.524 22.9471C102.985 22.1182 103.698 21.4275 104.665 20.8749C105.632 20.3223 106.853 19.9309 108.326 19.7006L114.474 18.6991V22.1527L109.19 23.0507C108.292 23.2118 107.624 23.4996 107.187 23.9141C106.749 24.3285 106.53 24.8696 106.53 25.5373C106.53 26.182 106.772 26.7 107.256 27.0915C107.762 27.4598 108.384 27.644 109.121 27.644C110.065 27.644 110.894 27.4483 111.607 27.0569C112.344 26.6425 112.908 26.0784 113.3 25.3646C113.714 24.6509 113.921 23.868 113.921 23.0161V18.181C113.921 17.3752 113.599 16.7075 112.954 16.1779C112.333 15.6253 111.504 15.349 110.468 15.349C109.501 15.349 108.637 15.6138 107.877 16.1434C107.141 16.6499 106.599 17.3291 106.254 18.181L102.559 16.3851C102.927 15.3951 103.503 14.5432 104.286 13.8294C105.091 13.0926 106.035 12.517 107.118 12.1026C108.2 11.6881 109.374 11.4809 110.64 11.4809C112.183 11.4809 113.541 11.7687 114.716 12.3443C115.89 12.8969 116.799 13.6797 117.444 14.6928C118.112 15.6829 118.446 16.8456 118.446 18.181V30.6833H114.163V27.4714L115.13 27.4023C114.647 28.2081 114.071 28.8874 113.403 29.4399C112.735 29.9695 111.976 30.3839 111.124 30.6833C110.272 30.9596 109.328 31.0977 108.292 31.0977Z" fill="#121212"/>
<path d="M122.627 30.6833V11.8954H126.875V15.5908L126.53 14.9346C126.967 13.8064 127.681 12.9545 128.671 12.3789C129.684 11.7802 130.858 11.4809 132.194 11.4809C133.575 11.4809 134.796 11.7802 135.855 12.3789C136.937 12.9775 137.777 13.8179 138.376 14.9C138.974 15.9592 139.274 17.191 139.274 18.5955V30.6833H134.749V19.6661C134.749 18.8372 134.588 18.1235 134.266 17.5248C133.944 16.9262 133.495 16.4657 132.919 16.1434C132.366 15.798 131.71 15.6253 130.95 15.6253C130.214 15.6253 129.557 15.798 128.982 16.1434C128.406 16.4657 127.957 16.9262 127.635 17.5248C127.313 18.1235 127.151 18.8372 127.151 19.6661V30.6833H122.627Z" fill="#121212"/>
<path d="M152.217 38.2813C150.813 38.2813 149.512 38.0511 148.315 37.5906C147.117 37.1301 146.081 36.4854 145.206 35.6565C144.354 34.8507 143.733 33.8952 143.341 32.79L147.555 31.2013C147.831 32.0762 148.372 32.7785 149.178 33.308C150.007 33.8606 151.02 34.1369 152.217 34.1369C153.138 34.1369 153.944 33.9642 154.635 33.6189C155.349 33.2735 155.901 32.767 156.293 32.0993C156.684 31.4546 156.88 30.6717 156.88 29.7508V25.4682L157.743 26.5043C157.098 27.6325 156.235 28.4844 155.153 29.06C154.071 29.6356 152.839 29.9235 151.457 29.9235C149.708 29.9235 148.142 29.5205 146.76 28.7147C145.379 27.9088 144.297 26.8036 143.514 25.3992C142.731 23.9947 142.34 22.4175 142.34 20.6676C142.34 18.8948 142.731 17.3176 143.514 15.9361C144.297 14.5547 145.367 13.4725 146.726 12.6897C148.084 11.8838 149.627 11.4809 151.354 11.4809C152.758 11.4809 153.99 11.7802 155.049 12.3789C156.131 12.9545 157.029 13.7949 157.743 14.9L157.121 16.0397V11.8954H161.404V29.7508C161.404 31.3855 161.001 32.8476 160.195 34.1369C159.412 35.4263 158.33 36.4394 156.949 37.1761C155.59 37.9129 154.013 38.2813 152.217 38.2813ZM152.01 25.7445C152.977 25.7445 153.817 25.5373 154.531 25.1229C155.268 24.6854 155.844 24.0868 156.258 23.327C156.672 22.5672 156.88 21.6922 156.88 20.7022C156.88 19.7352 156.661 18.8717 156.223 18.1119C155.809 17.3291 155.233 16.719 154.497 16.2815C153.783 15.844 152.954 15.6253 152.01 15.6253C151.066 15.6253 150.214 15.844 149.454 16.2815C148.694 16.719 148.096 17.3291 147.658 18.1119C147.244 18.8717 147.037 19.7352 147.037 20.7022C147.037 21.6692 147.244 22.5326 147.658 23.2924C148.096 24.0522 148.683 24.6509 149.42 25.0883C150.18 25.5258 151.043 25.7445 152.01 25.7445Z" fill="#121212"/>
<path d="M163.937 30.6833L170.499 21.2548L163.902 11.8954H169.221L174.367 19.4934H171.984L177.13 11.8954H182.414L175.852 21.2548L182.379 30.6833H177.095L172.019 23.1197H174.332L169.256 30.6833H163.937Z" fill="#121212"/>
<path d="M184.887 30.6833V11.8954H189.412V30.6833H184.887ZM184.887 9.78862V4.9535H189.412V9.78862H184.887Z" fill="#121212"/>
</svg>
