<svg width="198" height="40" viewBox="0 0 198 40" fill="none" xmlns="http://www.w3.org/2000/svg">
<path d="M20 0C8.98785 0 0 8.98786 0 20C0 31.0122 8.98785 40 20 40C31.0121 40 40 31.0122 40 20C40 8.98786 31.0121 0 20 0ZM5.58704 20C5.58704 15.8705 7.36842 12.0648 10.2024 9.4737C11.336 8.42106 13.2794 8.74494 14.0891 10.1215L19.1093 18.7854C19.5951 19.5952 19.5951 20.5668 19.1093 21.3765L14.0891 30.0405C13.2794 31.498 11.336 31.7409 10.1215 30.6073C7.36842 27.8542 5.58704 24.1296 5.58704 20ZM25.9109 29.8785L20.8907 21.2146C20.4049 20.4049 20.4049 19.4332 20.8907 18.6235L25.9109 9.95951C26.7206 8.58299 28.583 8.25911 29.7976 9.31174C32.6316 11.9028 34.413 15.7085 34.413 19.8381C34.413 23.9676 32.6316 27.7733 29.7976 30.3644C28.583 31.6599 26.7206 31.336 25.9109 29.8785Z" fill="#520062"/>
<path d="M194.074 15.4325C195.932 15.4325 197.438 13.9261 197.438 12.0678C197.438 10.2096 195.932 8.70312 194.074 8.70312C192.215 8.70312 190.709 10.2096 190.709 12.0678C190.709 13.9261 192.215 15.4325 194.074 15.4325Z" fill="#121212"/>
<path d="M61.7409 28.7346L67.8884 8.08755H73.8746L64.7878 34.1831H60.8448L61.7409 28.7346ZM56.0773 8.08755L62.2069 28.7346L63.1389 34.1831H59.16L50.127 8.08755H56.0773Z" fill="#060C42"/>
<path d="M85.632 29.81V21.1712C85.632 20.5499 85.5304 20.0182 85.3273 19.5761C85.1242 19.122 84.8075 18.7695 84.3774 18.5186C83.9592 18.2677 83.4155 18.1422 82.7464 18.1422C82.1729 18.1422 81.677 18.2438 81.2588 18.4469C80.8406 18.6381 80.518 18.9189 80.291 19.2893C80.064 19.6477 79.9505 20.0719 79.9505 20.5618H74.7887C74.7887 19.7374 74.9799 18.9547 75.3622 18.2139C75.7446 17.4731 76.3002 16.8219 77.0291 16.2603C77.7579 15.6868 78.6242 15.2387 79.6279 14.9161C80.6435 14.5935 81.7786 14.4322 83.0332 14.4322C84.5387 14.4322 85.8769 14.6831 87.0479 15.185C88.2189 15.6868 89.1389 16.4396 89.808 17.4432C90.4891 18.4469 90.8296 19.7015 90.8296 21.207V29.5053C90.8296 30.5687 90.8953 31.4409 91.0268 32.122C91.1582 32.7911 91.3494 33.3766 91.6003 33.8784V34.1831H86.3848C86.1338 33.6574 85.9427 33.0002 85.8112 32.2116C85.6917 31.4111 85.632 30.6105 85.632 29.81ZM86.3131 22.372L86.3489 25.2934H83.4633C82.7823 25.2934 82.1908 25.3711 81.689 25.5264C81.1871 25.6818 80.7749 25.9028 80.4523 26.1896C80.1297 26.4644 79.8907 26.787 79.7354 27.1574C79.592 27.5278 79.5203 27.9341 79.5203 28.3761C79.5203 28.8182 79.6219 29.2185 79.825 29.577C80.0281 29.9235 80.3209 30.1983 80.7032 30.4014C81.0856 30.5926 81.5337 30.6882 82.0474 30.6882C82.8241 30.6882 83.4992 30.5329 84.0727 30.2222C84.6462 29.9115 85.0883 29.5292 85.399 29.0751C85.7216 28.6211 85.8889 28.1909 85.9008 27.7847L87.263 29.9713C87.0718 30.4612 86.8089 30.969 86.4744 31.4947C86.1518 32.0205 85.7395 32.5163 85.2377 32.9823C84.7359 33.4364 84.1325 33.8127 83.4275 34.1114C82.7225 34.3982 81.8861 34.5416 80.9183 34.5416C79.6876 34.5416 78.5704 34.2966 77.5667 33.8068C76.575 33.3049 75.7864 32.6179 75.2009 31.7456C74.6274 30.8614 74.3406 29.8578 74.3406 28.7346C74.3406 27.719 74.5318 26.8169 74.9142 26.0283C75.2965 25.2397 75.8581 24.5765 76.5989 24.0388C77.3517 23.4892 78.2896 23.077 79.4128 22.8022C80.536 22.5154 81.8383 22.372 83.32 22.372H86.3131Z" fill="#060C42"/>
<path d="M99.8627 18.9308V34.1831H94.7009V14.7907H99.5401L99.8627 18.9308ZM99.1099 23.8058H97.712C97.712 22.372 97.8972 21.0816 98.2676 19.9345C98.638 18.7755 99.1577 17.7898 99.8268 16.9773C100.496 16.1528 101.291 15.5255 102.211 15.0954C103.143 14.6533 104.182 14.4322 105.329 14.4322C106.237 14.4322 107.068 14.5636 107.82 14.8265C108.573 15.0894 109.218 15.5076 109.756 16.0811C110.306 16.6546 110.724 17.4134 111.011 18.3573C111.309 19.3012 111.459 20.4543 111.459 21.8164V34.1831H106.261V21.7985C106.261 20.9382 106.142 20.2691 105.903 19.7911C105.664 19.3132 105.311 18.9786 104.845 18.7875C104.391 18.5843 103.83 18.4828 103.16 18.4828C102.467 18.4828 101.864 18.6202 101.35 18.895C100.848 19.1698 100.43 19.5522 100.096 20.042C99.7731 20.52 99.5281 21.0816 99.3609 21.7268C99.1936 22.372 99.1099 23.065 99.1099 23.8058Z" fill="#060C42"/>
<path d="M121.961 34.1831H116.764V13.0701C116.764 11.6004 117.051 10.3637 117.624 9.36006C118.21 8.34444 119.028 7.57973 120.08 7.06595C121.143 6.54021 122.404 6.27734 123.861 6.27734C124.339 6.27734 124.799 6.31319 125.241 6.38488C125.683 6.44462 126.114 6.52229 126.532 6.61788L126.478 10.5071C126.251 10.4474 126.012 10.4056 125.761 10.3817C125.51 10.3578 125.217 10.3458 124.883 10.3458C124.262 10.3458 123.73 10.4534 123.288 10.6684C122.858 10.8716 122.529 11.1762 122.302 11.5825C122.075 11.9887 121.961 12.4846 121.961 13.0701V34.1831ZM125.833 14.7907V18.4469H113.878V14.7907H125.833Z" fill="#060C42"/>
<path d="M139.006 29.81V21.1712C139.006 20.5499 138.905 20.0182 138.701 19.5761C138.498 19.122 138.182 18.7695 137.751 18.5186C137.333 18.2677 136.79 18.1422 136.12 18.1422C135.547 18.1422 135.051 18.2438 134.633 18.4469C134.215 18.6381 133.892 18.9189 133.665 19.2893C133.438 19.6477 133.325 20.0719 133.325 20.5618H128.163C128.163 19.7374 128.354 18.9547 128.736 18.2139C129.119 17.4731 129.674 16.8219 130.403 16.2603C131.132 15.6868 131.998 15.2387 133.002 14.9161C134.018 14.5935 135.153 14.4322 136.407 14.4322C137.913 14.4322 139.251 14.6831 140.422 15.185C141.593 15.6868 142.513 16.4396 143.182 17.4432C143.863 18.4469 144.204 19.7015 144.204 21.207V29.5053C144.204 30.5687 144.269 31.4409 144.401 32.122C144.532 32.7911 144.723 33.3766 144.974 33.8784V34.1831H139.759C139.508 33.6574 139.317 33.0002 139.185 32.2116C139.066 31.4111 139.006 30.6105 139.006 29.81ZM139.687 22.372L139.723 25.2934H136.837C136.156 25.2934 135.565 25.3711 135.063 25.5264C134.561 25.6818 134.149 25.9028 133.826 26.1896C133.504 26.4644 133.265 26.787 133.109 27.1574C132.966 27.5278 132.894 27.9341 132.894 28.3761C132.894 28.8182 132.996 29.2185 133.199 29.577C133.402 29.9235 133.695 30.1983 134.077 30.4014C134.46 30.5926 134.908 30.6882 135.422 30.6882C136.198 30.6882 136.873 30.5329 137.447 30.2222C138.02 29.9115 138.462 29.5292 138.773 29.0751C139.096 28.6211 139.263 28.1909 139.275 27.7847L140.637 29.9713C140.446 30.4612 140.183 30.969 139.848 31.4947C139.526 32.0205 139.114 32.5163 138.612 32.9823C138.11 33.4364 137.507 33.8127 136.802 34.1114C136.097 34.3982 135.26 34.5416 134.292 34.5416C133.062 34.5416 131.944 34.2966 130.941 33.8068C129.949 33.3049 129.16 32.6179 128.575 31.7456C128.001 30.8614 127.715 29.8578 127.715 28.7346C127.715 27.719 127.906 26.8169 128.288 26.0283C128.671 25.2397 129.232 24.5765 129.973 24.0388C130.726 23.4892 131.664 23.077 132.787 22.8022C133.91 22.5154 135.212 22.372 136.694 22.372H139.687Z" fill="#060C42"/>
<path d="M148.183 6.65372H153.344V29.7383L152.825 34.1831H148.183V6.65372ZM165.621 24.2898V24.6661C165.621 26.1119 165.466 27.4382 165.155 28.645C164.857 29.8518 164.391 30.8973 163.757 31.7815C163.124 32.6537 162.336 33.3348 161.392 33.8247C160.46 34.3026 159.36 34.5416 158.094 34.5416C156.911 34.5416 155.883 34.3026 155.011 33.8247C154.151 33.3467 153.428 32.6716 152.842 31.7994C152.257 30.9272 151.785 29.9056 151.427 28.7346C151.068 27.5636 150.799 26.2852 150.62 24.8991V24.0747C150.799 22.6886 151.068 21.4102 151.427 20.2392C151.785 19.0682 152.257 18.0466 152.842 17.1744C153.428 16.3022 154.151 15.6271 155.011 15.1491C155.871 14.6712 156.887 14.4322 158.058 14.4322C159.336 14.4322 160.448 14.6772 161.392 15.167C162.348 15.645 163.136 16.3261 163.757 17.2102C164.391 18.0825 164.857 19.122 165.155 20.3288C165.466 21.5237 165.621 22.844 165.621 24.2898ZM160.46 24.6661V24.2898C160.46 23.5011 160.4 22.7603 160.28 22.0673C160.173 21.3624 159.982 20.747 159.707 20.2213C159.432 19.6836 159.056 19.2594 158.578 18.9488C158.112 18.6381 157.508 18.4828 156.768 18.4828C156.063 18.4828 155.465 18.6023 154.975 18.8412C154.485 19.0802 154.079 19.4148 153.757 19.8449C153.446 20.275 153.213 20.7888 153.058 21.3863C152.902 21.9717 152.807 22.617 152.771 23.3219V25.6698C152.807 26.6137 152.962 27.4501 153.237 28.179C153.524 28.8959 153.954 29.4635 154.527 29.8817C155.113 30.2879 155.871 30.491 156.803 30.491C157.532 30.491 158.136 30.3477 158.614 30.0609C159.092 29.7741 159.462 29.3679 159.725 28.8421C160 28.3164 160.191 27.7011 160.298 26.9961C160.406 26.2792 160.46 25.5025 160.46 24.6661Z" fill="#060C42"/>
<path d="M179.296 29.81V21.1712C179.296 20.5499 179.195 20.0182 178.992 19.5761C178.789 19.122 178.472 18.7695 178.042 18.5186C177.624 18.2677 177.08 18.1422 176.411 18.1422C175.837 18.1422 175.342 18.2438 174.923 18.4469C174.505 18.6381 174.183 18.9189 173.956 19.2893C173.728 19.6477 173.615 20.0719 173.615 20.5618H168.453C168.453 19.7374 168.644 18.9547 169.027 18.2139C169.409 17.4731 169.965 16.8219 170.694 16.2603C171.422 15.6868 172.289 15.2387 173.292 14.9161C174.308 14.5935 175.443 14.4322 176.698 14.4322C178.203 14.4322 179.541 14.6831 180.712 15.185C181.883 15.6868 182.803 16.4396 183.473 17.4432C184.154 18.4469 184.494 19.7015 184.494 21.207V29.5053C184.494 30.5687 184.56 31.4409 184.691 32.122C184.823 32.7911 185.014 33.3766 185.265 33.8784V34.1831H180.049C179.798 33.6574 179.607 33.0002 179.476 32.2116C179.356 31.4111 179.296 30.6105 179.296 29.81ZM179.978 22.372L180.013 25.2934H177.128C176.447 25.2934 175.855 25.3711 175.353 25.5264C174.852 25.6818 174.439 25.9028 174.117 26.1896C173.794 26.4644 173.555 26.787 173.4 27.1574C173.257 27.5278 173.185 27.9341 173.185 28.3761C173.185 28.8182 173.286 29.2185 173.49 29.577C173.693 29.9235 173.985 30.1983 174.368 30.4014C174.75 30.5926 175.198 30.6882 175.712 30.6882C176.489 30.6882 177.164 30.5329 177.737 30.2222C178.311 29.9115 178.753 29.5292 179.063 29.0751C179.386 28.6211 179.553 28.1909 179.565 27.7847L180.927 29.9713C180.736 30.4612 180.473 30.969 180.139 31.4947C179.816 32.0205 179.404 32.5163 178.902 32.9823C178.4 33.4364 177.797 33.8127 177.092 34.1114C176.387 34.3982 175.551 34.5416 174.583 34.5416C173.352 34.5416 172.235 34.2966 171.231 33.8068C170.24 33.3049 169.451 32.6179 168.865 31.7456C168.292 30.8614 168.005 29.8578 168.005 28.7346C168.005 27.719 168.196 26.8169 168.579 26.0283C168.961 25.2397 169.523 24.5765 170.263 24.0388C171.016 23.4892 171.954 23.077 173.077 22.8022C174.2 22.5154 175.503 22.372 176.984 22.372H179.978Z" fill="#060C42"/>
</svg>
