<svg width="186" height="43" viewBox="0 0 186 43" fill="none" xmlns="http://www.w3.org/2000/svg">
<path d="M19.7059 6.25V0H0V42.9412H19.7059V36.6912C15.6691 36.6912 11.7976 35.0875 8.94329 32.2331C6.08888 29.3787 4.48529 25.5074 4.48529 21.4706C4.48529 17.4338 6.08888 13.5624 8.94329 10.708C11.7976 7.8536 15.6691 6.25 19.7059 6.25Z" fill="#24C9C9"/>
<path d="M19.7031 6.25V36.6912C23.7399 36.6912 27.6114 35.0875 30.4658 32.2331C33.3202 29.3787 34.9237 25.5074 34.9237 21.4706C34.9237 17.4338 33.3202 13.5624 30.4658 10.708C27.6114 7.8536 23.7399 6.25 19.7031 6.25Z" fill="#215CF3"/>
<path d="M182.573 15.205C184.36 15.205 185.808 13.7564 185.808 11.9697C185.808 10.1829 184.36 8.73438 182.573 8.73438C180.786 8.73438 179.338 10.1829 179.338 11.9697C179.338 13.7564 180.786 15.205 182.573 15.205Z" fill="#121212"/>
<path d="M55.3313 27.9959L61.2424 8.14292H66.9984L58.261 33.2348H54.4697L55.3313 27.9959ZM49.8856 8.14292L55.7794 27.9959L56.6755 33.2348H52.8497L44.1641 8.14292H49.8856Z" fill="#121212"/>
<path d="M78.3035 29.0299V20.7233C78.3035 20.1259 78.2059 19.6147 78.0106 19.1896C77.8152 18.753 77.5108 18.4141 77.0972 18.1728C76.6951 17.9315 76.1723 17.8109 75.5289 17.8109C74.9775 17.8109 74.5007 17.9085 74.0986 18.1039C73.6965 18.2877 73.3862 18.5577 73.168 18.9138C72.9497 19.2585 72.8405 19.6664 72.8405 20.1374H67.8773C67.8773 19.3447 68.0611 18.5921 68.4288 17.8798C68.7964 17.1675 69.3306 16.5414 70.0315 16.0014C70.7323 15.4499 71.5652 15.0191 72.5303 14.7089C73.5069 14.3987 74.5983 14.2436 75.8047 14.2436C77.2523 14.2436 78.5391 14.4848 79.665 14.9674C80.7909 15.4499 81.6755 16.1737 82.3189 17.1388C82.9738 18.1039 83.3012 19.3102 83.3012 20.7578V28.7369C83.3012 29.7594 83.3644 30.5981 83.4908 31.253C83.6172 31.8964 83.801 32.4593 84.0423 32.9419V33.2348H79.0273C78.7861 32.7293 78.6022 32.0974 78.4759 31.3392C78.361 30.5694 78.3035 29.7996 78.3035 29.0299ZM78.9584 21.878L78.9929 24.687H76.2183C75.5634 24.687 74.9947 24.7617 74.5122 24.9111C74.0296 25.0604 73.6333 25.273 73.3231 25.5487C73.0129 25.813 72.7831 26.1232 72.6337 26.4793C72.4959 26.8355 72.4269 27.2261 72.4269 27.6512C72.4269 28.0763 72.5246 28.4612 72.7199 28.8058C72.9152 29.139 73.1967 29.4033 73.5643 29.5986C73.932 29.7824 74.3628 29.8743 74.8568 29.8743C75.6036 29.8743 76.2527 29.725 76.8042 29.4262C77.3557 29.1275 77.7808 28.7599 78.0795 28.3233C78.3897 27.8867 78.5505 27.4731 78.562 27.0825L79.8718 29.185C79.6879 29.656 79.4352 30.1443 79.1135 30.6498C78.8033 31.1553 78.4069 31.6321 77.9244 32.0802C77.4419 32.5168 76.8617 32.8787 76.1838 33.1659C75.506 33.4416 74.7017 33.5795 73.7711 33.5795C72.5878 33.5795 71.5135 33.344 70.5485 32.8729C69.5949 32.3904 68.8366 31.7298 68.2737 30.8911C67.7222 30.0409 67.4465 29.0758 67.4465 27.9959C67.4465 27.0193 67.6303 26.1519 67.9979 25.3936C68.3656 24.6353 68.9056 23.9977 69.6179 23.4807C70.3417 22.9522 71.2436 22.5558 72.3235 22.2916C73.4035 22.0159 74.6558 21.878 76.0804 21.878H78.9584Z" fill="#121212"/>
<path d="M91.9869 18.5692V33.2348H87.0237V14.5882H91.6767L91.9869 18.5692ZM91.2631 23.2567H89.9189C89.9189 21.878 90.097 20.6372 90.4531 19.5342C90.8093 18.4198 91.309 17.472 91.9524 16.6907C92.5958 15.898 93.3598 15.2948 94.2445 14.8812C95.1406 14.4561 96.1401 14.2436 97.2431 14.2436C98.1162 14.2436 98.9147 14.3699 99.6385 14.6227C100.362 14.8755 100.983 15.2776 101.5 15.829C102.028 16.3805 102.43 17.1101 102.706 18.0177C102.993 18.9253 103.137 20.034 103.137 21.3438V33.2348H98.1392V21.3265C98.1392 20.4993 98.0243 19.8559 97.7946 19.3964C97.5648 18.9368 97.2259 18.6151 96.7778 18.4313C96.3412 18.236 95.8012 18.1383 95.1578 18.1383C94.4915 18.1383 93.9113 18.2705 93.4173 18.5347C92.9347 18.7989 92.5326 19.1666 92.2109 19.6376C91.9007 20.0972 91.6652 20.6372 91.5043 21.2576C91.3435 21.878 91.2631 22.5443 91.2631 23.2567Z" fill="#121212"/>
<path d="M113.236 33.2348H108.238V12.9338C108.238 11.5207 108.514 10.3316 109.065 9.3665C109.628 8.38994 110.415 7.65464 111.426 7.16062C112.449 6.6551 113.661 6.40234 115.062 6.40234C115.522 6.40234 115.964 6.43681 116.389 6.50574C116.815 6.56319 117.228 6.63787 117.63 6.72978L117.579 10.4694C117.36 10.412 117.13 10.3718 116.889 10.3488C116.648 10.3258 116.366 10.3143 116.045 10.3143C115.447 10.3143 114.936 10.4177 114.511 10.6245C114.097 10.8199 113.781 11.1128 113.563 11.5034C113.345 11.8941 113.236 12.3709 113.236 12.9338V33.2348ZM116.958 14.5882V18.1039H105.463V14.5882H116.958Z" fill="#121212"/>
<path d="M129.625 29.0299V20.7233C129.625 20.1259 129.527 19.6147 129.332 19.1896C129.136 18.753 128.832 18.4141 128.418 18.1728C128.016 17.9315 127.494 17.8109 126.85 17.8109C126.299 17.8109 125.822 17.9085 125.42 18.1039C125.018 18.2877 124.707 18.5577 124.489 18.9138C124.271 19.2585 124.162 19.6664 124.162 20.1374H119.199C119.199 19.3447 119.382 18.5921 119.75 17.8798C120.118 17.1675 120.652 16.5414 121.353 16.0014C122.054 15.4499 122.886 15.0191 123.852 14.7089C124.828 14.3987 125.92 14.2436 127.126 14.2436C128.574 14.2436 129.86 14.4848 130.986 14.9674C132.112 15.4499 132.997 16.1737 133.64 17.1388C134.295 18.1039 134.622 19.3102 134.622 20.7578V28.7369C134.622 29.7594 134.686 30.5981 134.812 31.253C134.938 31.8964 135.122 32.4593 135.363 32.9419V33.2348H130.349C130.107 32.7293 129.923 32.0974 129.797 31.3392C129.682 30.5694 129.625 29.7996 129.625 29.0299ZM130.28 21.878L130.314 24.687H127.539C126.885 24.687 126.316 24.7617 125.833 24.9111C125.351 25.0604 124.954 25.273 124.644 25.5487C124.334 25.813 124.104 26.1232 123.955 26.4793C123.817 26.8355 123.748 27.2261 123.748 27.6512C123.748 28.0763 123.846 28.4612 124.041 28.8058C124.236 29.139 124.518 29.4033 124.886 29.5986C125.253 29.7824 125.684 29.8743 126.178 29.8743C126.925 29.8743 127.574 29.725 128.125 29.4262C128.677 29.1275 129.102 28.7599 129.401 28.3233C129.711 27.8867 129.872 27.4731 129.883 27.0825L131.193 29.185C131.009 29.656 130.756 30.1443 130.435 30.6498C130.125 31.1553 129.728 31.6321 129.246 32.0802C128.763 32.5168 128.183 32.8787 127.505 33.1659C126.827 33.4416 126.023 33.5795 125.092 33.5795C123.909 33.5795 122.835 33.344 121.87 32.8729C120.916 32.3904 120.158 31.7298 119.595 30.8911C119.043 30.0409 118.768 29.0758 118.768 27.9959C118.768 27.0193 118.951 26.1519 119.319 25.3936C119.687 24.6353 120.227 23.9977 120.939 23.4807C121.663 22.9522 122.565 22.5558 123.645 22.2916C124.725 22.0159 125.977 21.878 127.402 21.878H130.28Z" fill="#121212"/>
<path d="M138.448 6.76425H143.412V28.9609L142.912 33.2348H138.448V6.76425ZM155.216 23.722V24.0839C155.216 25.474 155.067 26.7493 154.768 27.9097C154.481 29.0701 154.033 30.0754 153.424 30.9256C152.815 31.7642 152.057 32.4191 151.149 32.8902C150.253 33.3497 149.196 33.5795 147.978 33.5795C146.841 33.5795 145.853 33.3497 145.014 32.8902C144.187 32.4306 143.492 31.7815 142.929 30.9428C142.366 30.1041 141.912 29.1218 141.568 27.9959C141.223 26.8699 140.964 25.6406 140.792 24.3079V23.5152C140.964 22.1824 141.223 20.9531 141.568 19.8272C141.912 18.7013 142.366 17.719 142.929 16.8803C143.492 16.0416 144.187 15.3925 145.014 14.9329C145.841 14.4733 146.818 14.2436 147.944 14.2436C149.173 14.2436 150.242 14.4791 151.149 14.9501C152.068 15.4097 152.827 16.0646 153.424 16.9148C154.033 17.7534 154.481 18.753 154.768 19.9134C155.067 21.0623 155.216 22.3318 155.216 23.722ZM150.253 24.0839V23.722C150.253 22.9637 150.196 22.2514 150.081 21.585C149.977 20.9072 149.794 20.3155 149.529 19.81C149.265 19.293 148.903 18.8851 148.444 18.5864C147.996 18.2877 147.415 18.1383 146.703 18.1383C146.025 18.1383 145.451 18.2532 144.98 18.483C144.509 18.7128 144.118 19.0345 143.808 19.4481C143.509 19.8617 143.285 20.3557 143.136 20.9301C142.986 21.4931 142.894 22.1135 142.86 22.7914V25.0489C142.894 25.9566 143.044 26.7608 143.308 27.4616C143.584 28.151 143.997 28.6967 144.549 29.0988C145.112 29.4894 145.841 29.6847 146.738 29.6847C147.438 29.6847 148.019 29.5469 148.478 29.2711C148.938 28.9954 149.294 28.6048 149.547 28.0993C149.811 27.5938 149.995 27.0021 150.098 26.3242C150.201 25.6349 150.253 24.8881 150.253 24.0839Z" fill="#121212"/>
<path d="M168.366 29.0299V20.7233C168.366 20.1259 168.268 19.6147 168.073 19.1896C167.877 18.753 167.573 18.4141 167.159 18.1728C166.757 17.9315 166.234 17.8109 165.591 17.8109C165.039 17.8109 164.563 17.9085 164.161 18.1039C163.758 18.2877 163.448 18.5577 163.23 18.9138C163.012 19.2585 162.903 19.6664 162.903 20.1374H157.939C157.939 19.3447 158.123 18.5921 158.491 17.8798C158.858 17.1675 159.393 16.5414 160.093 16.0014C160.794 15.4499 161.627 15.0191 162.592 14.7089C163.569 14.3987 164.66 14.2436 165.867 14.2436C167.314 14.2436 168.601 14.4848 169.727 14.9674C170.853 15.4499 171.738 16.1737 172.381 17.1388C173.036 18.1039 173.363 19.3102 173.363 20.7578V28.7369C173.363 29.7594 173.426 30.5981 173.553 31.253C173.679 31.8964 173.863 32.4593 174.104 32.9419V33.2348H169.089C168.848 32.7293 168.664 32.0974 168.538 31.3392C168.423 30.5694 168.366 29.7996 168.366 29.0299ZM169.02 21.878L169.055 24.687H166.28C165.625 24.687 165.057 24.7617 164.574 24.9111C164.092 25.0604 163.695 25.273 163.385 25.5487C163.075 25.813 162.845 26.1232 162.696 26.4793C162.558 26.8355 162.489 27.2261 162.489 27.6512C162.489 28.0763 162.587 28.4612 162.782 28.8058C162.977 29.139 163.259 29.4033 163.626 29.5986C163.994 29.7824 164.425 29.8743 164.919 29.8743C165.666 29.8743 166.315 29.725 166.866 29.4262C167.418 29.1275 167.843 28.7599 168.142 28.3233C168.452 27.8867 168.613 27.4731 168.624 27.0825L169.934 29.185C169.75 29.656 169.497 30.1443 169.176 30.6498C168.865 31.1553 168.469 31.6321 167.986 32.0802C167.504 32.5168 166.924 32.8787 166.246 33.1659C165.568 33.4416 164.764 33.5795 163.833 33.5795C162.65 33.5795 161.576 33.344 160.61 32.8729C159.657 32.3904 158.899 31.7298 158.336 30.8911C157.784 30.0409 157.508 29.0758 157.508 27.9959C157.508 27.0193 157.692 26.1519 158.06 25.3936C158.428 24.6353 158.968 23.9977 159.68 23.4807C160.404 22.9522 161.306 22.5558 162.386 22.2916C163.465 22.0159 164.718 21.878 166.142 21.878H169.02Z" fill="#121212"/>
</svg>
