<?xml version="1.0" encoding="UTF-8"?>
<!DOCTYPE svg PUBLIC "-//W3C//DTD SVG 1.1//EN" "http://www.w3.org/Graphics/SVG/1.1/DTD/svg11.dtd">
<!-- Creator: CorelDRAW (Evaluation Version) -->
<svg xmlns="http://www.w3.org/2000/svg" xml:space="preserve" width="4380px" height="1671px" version="1.1" shape-rendering="geometricPrecision" text-rendering="geometricPrecision" image-rendering="optimizeQuality" fill-rule="evenodd" clip-rule="evenodd"
viewBox="0 0 164909 62905"
 xmlns:xlink="http://www.w3.org/1999/xlink"
 xmlns:xodm="http://www.corel.com/coreldraw/odm/2003">
 <defs>
     <linearGradient id="id0" gradientUnits="userSpaceOnUse" x1="34959" y1="31839" x2="6361" y2="56948">
      <stop offset="0" stop-opacity="1" stop-color="#1985F1"/>
      <stop offset="1" stop-opacity="1" stop-color="#60E8B7"/>
     </linearGradient>
     <linearGradient id="id1" gradientUnits="userSpaceOnUse" x1="34805" y1="31875" x2="7470" y2="56984">
      <stop offset="0" stop-opacity="1" stop-color="#1985F1"/>
      <stop offset="1" stop-opacity="1" stop-color="#60E8B7"/>
     </linearGradient>
     <linearGradient id="id2" gradientUnits="userSpaceOnUse" x1="27880" y1="-1012" x2="22013" y2="51108">
      <stop offset="0" stop-opacity="1" stop-color="#1985F1"/>
      <stop offset="1" stop-opacity="1" stop-color="#60E8B7"/>
     </linearGradient>
     <linearGradient id="id3" gradientUnits="userSpaceOnUse" x1="28449" y1="220" x2="29860" y2="46646">
      <stop offset="0" stop-opacity="1" stop-color="#3ADCDF"/>
      <stop offset="1" stop-opacity="1" stop-color="#60E8B7"/>
     </linearGradient>
 </defs>
 <g id="Layer_x0020_1">
  <metadata id="CorelCorpID_0Corel-Layer"/>
  <g id="_1986589718880">
   <g>
    <path fill="#60E8B7" fill-rule="nonzero" d="M6090 61717c0,656 532,1188 1188,1188 657,0 1189,-532 1189,-1188 0,-657 -532,-1188 -1189,-1188 -656,0 -1188,531 -1188,1188z"/>
    <path fill="#60E8B7" fill-rule="nonzero" d="M2525 55776c0,410 333,742 743,742 410,0 742,-332 742,-742 0,-411 -332,-744 -742,-744 -410,0 -743,333 -743,744z"/>
    <path fill="#60E8B7" fill-rule="nonzero" d="M4902 54290c0,656 532,1188 1188,1188 656,0 1188,-532 1188,-1188 0,-657 -532,-1188 -1188,-1188 -656,0 -1188,531 -1188,1188z"/>
    <path fill="#60E8B7" fill-rule="nonzero" d="M0 48199c0,657 532,1190 1188,1190 657,0 1189,-533 1189,-1190 0,-655 -532,-1188 -1189,-1188 -656,0 -1188,533 -1188,1188z"/>
    <path fill="url(#id0)" d="M11577 60469c-238,0 -464,-134 -577,-356 -45,-95 -68,-191 -68,-287 0,-274 175,-532 458,-617 1250,-380 3793,-1270 5201,-2577 274,-254 311,-677 92,-982 -145,-204 -375,-316 -611,-316 -118,0 -235,28 -345,85 -1252,650 -4447,2153 -8365,2825 -52,9 -104,13 -154,13 -419,0 -789,-297 -867,-722 -9,-53 -15,-105 -15,-157 0,-384 253,-731 632,-845 2155,-631 8475,-2763 13517,-7279 323,-289 353,-785 67,-1112 -156,-178 -374,-271 -595,-271 -183,0 -367,64 -516,194 -1344,1168 -4953,3979 -10121,5538 -62,19 -125,28 -187,28 -266,0 -514,-163 -612,-423 -28,-76 -42,-153 -42,-230 0,-265 162,-514 427,-611 1389,-505 4799,-1863 6994,-3728 327,-278 391,-757 153,-1113 -163,-245 -432,-379 -705,-379 -165,0 -332,47 -477,148 -1578,1083 -5872,3715 -13203,5980 -69,21 -140,32 -209,32 -295,0 -569,-186 -666,-480 -25,-75 -37,-149 -37,-224 0,-298 193,-575 494,-669 2078,-646 8446,-2819 13211,-6519 288,-223 348,-633 137,-928 -131,-185 -339,-284 -550,-284 -119,0 -238,31 -346,96 -1170,698 -4248,2369 -8814,3627 -81,23 -163,34 -244,34 -353,0 -687,-206 -839,-540 -56,-123 -83,-253 -83,-380 0,-378 233,-734 615,-869 2411,-851 8817,-3325 12267,-6657 861,-831 1423,-1606 1771,-2314 15202,10466 11997,14366 11863,14517 69,-44 129,-86 183,-122 -1476,999 -8518,5566 -18638,8842 -65,22 -131,32 -196,32zm20710 -12440c1,-2434 -1963,-4994 -3859,-6789 -1778,-1685 -3753,-3155 -5754,-4562 -1671,-1176 -3311,-2506 -4833,-3974 129,135 353,398 557,770 -204,-372 -428,-634 -557,-770 1522,1468 3162,2798 4833,3974 2001,1407 3976,2877 5754,4562 1896,1795 3860,4355 3859,6789zm-13887 -14551c0,0 0,-1 -1,-1 1,0 1,1 1,1z"/>
    <path fill="url(#id1)" d="M30193 51753c133,-152 3339,-4052 -11864,-14518 811,-1646 467,-2932 36,-3721 -1,0 -1,-2 -1,-2 -1,-1 -1,-1 -2,-2 -204,-373 -428,-635 -557,-770 1522,1468 3162,2797 4833,3974 2001,1406 3976,2877 5754,4561 1896,1796 3860,4356 3859,6790 -1,1265 -531,2495 -1876,3565 -53,37 -114,79 -182,123z"/>
    <path fill="url(#id2)" d="M23061 17111l2 3c29,91 61,186 92,283 1360,4152 5341,6977 8830,9268 5358,3521 9248,9706 6502,16146 -571,1340 -1354,2541 -2273,3642l0 2c-1643,1975 -3716,3623 -5769,5139l-12 9c-28,19 -59,40 -94,63 3935,-3133 898,-7628 -1983,-10355 -1778,-1684 -3753,-3155 -5754,-4561 -1671,-1177 -3311,-2506 -4833,-3974l-4 -5c-30,-30 -61,-59 -91,-90l-14 -11c-3584,-3485 -6498,-7741 -7607,-12570 -2811,-12231 7541,-20118 18556,-20100l7064 0c-2468,215 -5657,721 -7413,1167 -1034,263 -2044,623 -3011,1076 -4061,1908 -7603,5501 -8961,9834 -198,627 -331,1275 -402,1930 -88,818 -94,1647 -15,2466 704,7220 7559,12501 12903,16542 2056,1555 4227,3039 5815,5103 1892,2463 2497,5612 1619,8335 919,-1101 1702,-2302 2273,-3642 2746,-6440 -1144,-12625 -6502,-16146 -3489,-2291 -7470,-5116 -8830,-9268l-88 -286z"/>
    <path fill="#3ADCDF" d="M45074 4679l-743 0c-697,0 -1262,565 -1262,1264 0,696 565,1262 1262,1262l743 0c697,0 1262,-566 1262,-1262 0,-699 -565,-1264 -1262,-1264z"/>
    <path fill="url(#id3)" d="M41732 5943c0,695 -566,1262 -1263,1262l-9766 0c-5164,95 -9227,5195 -7590,10192 1361,4152 5341,6977 8830,9268 5358,3521 9248,9706 6502,16146 -571,1340 -1353,2541 -2273,3642 878,-2723 273,-5872 -1619,-8335 -1588,-2064 -3759,-3548 -5815,-5103 -5344,-4041 -12199,-9322 -12903,-16542 -79,-819 -73,-1648 15,-2466 71,-655 205,-1303 402,-1930 1358,-4333 4900,-7926 8961,-9834 967,-453 1977,-813 3011,-1076 1756,-446 4945,-952 7413,-1167l3087 0c636,0 1151,516 1151,1151 0,637 -515,1152 -1151,1152l-2934 0c-193,0 -374,47 -534,127 -388,195 -654,598 -654,1061 0,89 11,175 28,259 118,531 593,929 1160,929l4679 0c697,0 1263,567 1263,1264z"/>
   </g>
   <path fill="#FEFEFE" fill-rule="nonzero" d="M56665 48516c-2220,0 -4199,-431 -5938,-1292 -1739,-862 -3089,-2178 -4050,-3951 -960,-1772 -1440,-4033 -1440,-6782l0 -15105 7751 0 0 13962c0,2220 472,3851 1416,4894 944,1044 2277,1566 4000,1566 1192,0 2252,-257 3180,-771 927,-513 1656,-1308 2186,-2385 530,-1076 795,-2426 795,-4049l0 -13217 7752 0 0 26732 -7354 0 0 -7354 1341 2137c-894,1855 -2211,3254 -3950,4198 -1739,944 -3635,1417 -5689,1417z"/>
   <path id="_1" fill="#FEFEFE" fill-rule="nonzero" d="M77141 48118l0 -26732 7751 0 0 26732 -7751 0zm3876 -30459c-1425,0 -2584,-414 -3478,-1242 -895,-828 -1342,-1855 -1342,-3081 0,-1225 447,-2252 1342,-3080 894,-829 2053,-1243 3478,-1243 1424,0 2584,390 3478,1168 894,779 1341,1781 1341,3006 0,1292 -438,2360 -1316,3205 -878,845 -2046,1267 -3503,1267z"/>
   <path id="_2" fill="#FEFEFE" fill-rule="nonzero" d="M100648 48516c-3147,0 -5598,-804 -7354,-2410 -1755,-1607 -2633,-4000 -2633,-7180l0 -23453 7751 0 0 23353c0,1127 298,1996 895,2609 596,613 1407,919 2434,919 1226,0 2269,-331 3131,-994l2087 5466c-795,563 -1748,986 -2857,1267 -1110,282 -2261,423 -3454,423zm-14111 -21168l0 -5962 18533 0 0 5962 -18533 0z"/>
   <path id="_3" fill="#FEFEFE" fill-rule="nonzero" d="M108951 48118l0 -26732 7751 0 0 26732 -7751 0zm3876 -30459c-1425,0 -2584,-414 -3479,-1242 -894,-828 -1341,-1855 -1341,-3081 0,-1225 447,-2252 1341,-3080 895,-829 2054,-1243 3479,-1243 1424,0 2583,390 3478,1168 894,779 1341,1781 1341,3006 0,1292 -439,2360 -1316,3205 -878,845 -2046,1267 -3503,1267z"/>
   <path id="_4" fill="#FEFEFE" fill-rule="nonzero" d="M122471 48118l0 -27329c0,-3014 894,-5424 2683,-7229 1789,-1805 4339,-2708 7652,-2708 1126,0 2211,116 3254,348 1044,232 1930,596 2659,1093l-2037 5615c-431,-299 -911,-530 -1441,-696 -530,-166 -1094,-248 -1690,-248 -1126,0 -1996,322 -2608,968 -613,646 -920,1615 -920,2907l0 2485 199 3329 0 21465 -7751 0zm-4124 -20173l0 -5963 18533 0 0 5963 -18533 0z"/>
   <path id="_5" fill="#FEFEFE" fill-rule="nonzero" d="M141754 58155c-1391,0 -2766,-215 -4124,-646 -1358,-431 -2468,-1027 -3329,-1789l2832 -5515c597,530 1284,944 2063,1242 778,298 1548,447 2310,447 1093,0 1963,-256 2609,-770 646,-513 1234,-1366 1764,-2559l1391 -3279 596 -845 9590 -23055 7453 0 -12074 28372c-861,2153 -1847,3842 -2957,5068 -1109,1226 -2335,2087 -3676,2584 -1342,497 -2824,745 -4448,745zm4572 -8994l-11925 -27775 7999 0 9242 22359 -5316 5416z"/>
  </g>
 </g>
</svg>
