<?xml version="1.0" encoding="UTF-8"?>
<!DOCTYPE svg PUBLIC "-//W3C//DTD SVG 1.1//EN" "http://www.w3.org/Graphics/SVG/1.1/DTD/svg11.dtd">
<!-- Creator: CorelDRAW (Evaluation Version) -->
<svg xmlns="http://www.w3.org/2000/svg" xml:space="preserve" width="4380px" height="1671px" version="1.1" shape-rendering="geometricPrecision" text-rendering="geometricPrecision" image-rendering="optimizeQuality" fill-rule="evenodd" clip-rule="evenodd"
viewBox="0 0 165430 63103"
 xmlns:xlink="http://www.w3.org/1999/xlink"
 xmlns:xodm="http://www.corel.com/coreldraw/odm/2003">
 <defs>
     <linearGradient id="id0" gradientUnits="userSpaceOnUse" x1="35069" y1="31940" x2="6382" y2="57128">
      <stop offset="0" stop-opacity="1" stop-color="#1985F1"/>
      <stop offset="1" stop-opacity="1" stop-color="#60E8B7"/>
     </linearGradient>
     <linearGradient id="id1" gradientUnits="userSpaceOnUse" x1="34915" y1="31976" x2="7494" y2="57164">
      <stop offset="0" stop-opacity="1" stop-color="#1985F1"/>
      <stop offset="1" stop-opacity="1" stop-color="#60E8B7"/>
     </linearGradient>
     <linearGradient id="id2" gradientUnits="userSpaceOnUse" x1="27968" y1="-1015" x2="22083" y2="51270">
      <stop offset="0" stop-opacity="1" stop-color="#1985F1"/>
      <stop offset="1" stop-opacity="1" stop-color="#60E8B7"/>
     </linearGradient>
     <linearGradient id="id3" gradientUnits="userSpaceOnUse" x1="28538" y1="220" x2="29954" y2="46793">
      <stop offset="0" stop-opacity="1" stop-color="#3ADCDF"/>
      <stop offset="1" stop-opacity="1" stop-color="#60E8B7"/>
     </linearGradient>
 </defs>
 <g id="Layer_x0020_1">
  <metadata id="CorelCorpID_0Corel-Layer"/>
  <g id="_2023166672128">
   <g>
    <path fill="#60E8B7" fill-rule="nonzero" d="M6109 61912c0,658 534,1191 1192,1191 659,0 1192,-533 1192,-1191 0,-659 -533,-1192 -1192,-1192 -658,0 -1192,533 -1192,1192z"/>
    <path fill="#60E8B7" fill-rule="nonzero" d="M2533 55952c0,411 334,744 745,744 411,0 745,-333 745,-744 0,-412 -334,-746 -745,-746 -411,0 -745,334 -745,746z"/>
    <path fill="#60E8B7" fill-rule="nonzero" d="M4917 54461c0,659 534,1192 1192,1192 659,0 1192,-533 1192,-1192 0,-659 -533,-1192 -1192,-1192 -658,0 -1192,533 -1192,1192z"/>
    <path fill="#60E8B7" fill-rule="nonzero" d="M0 48351c0,659 534,1194 1192,1194 658,0 1192,-535 1192,-1194 0,-657 -534,-1191 -1192,-1191 -658,0 -1192,534 -1192,1191z"/>
    <path fill="url(#id0)" d="M11614 60659c-239,0 -466,-134 -579,-357 -46,-95 -68,-191 -68,-287 0,-275 175,-533 459,-619 1254,-382 3805,-1275 5218,-2585 274,-255 311,-679 92,-986 -146,-204 -377,-316 -614,-316 -118,0 -235,28 -345,85 -1257,652 -4462,2160 -8392,2834 -52,9 -104,13 -154,13 -420,0 -792,-298 -870,-725 -9,-53 -15,-105 -15,-157 0,-385 254,-733 633,-847 2162,-633 8503,-2772 13561,-7303 323,-290 353,-787 67,-1115 -156,-179 -375,-271 -597,-271 -184,0 -368,63 -517,193 -1349,1172 -4970,3992 -10153,5556 -63,19 -126,28 -188,28 -267,0 -516,-163 -614,-424 -28,-76 -42,-153 -42,-231 0,-265 163,-515 428,-613 1393,-506 4814,-1869 7016,-3739 328,-279 392,-760 154,-1117 -164,-246 -434,-380 -708,-380 -165,0 -332,46 -478,148 -1583,1086 -5890,3727 -13245,5999 -69,22 -140,32 -209,32 -296,0 -571,-186 -669,-482 -25,-74 -37,-149 -37,-224 0,-299 194,-577 496,-671 2085,-648 8473,-2828 13253,-6540 289,-223 348,-634 137,-931 -131,-185 -340,-285 -552,-285 -119,0 -238,32 -347,96 -1174,701 -4261,2378 -8842,3639 -81,23 -163,34 -245,34 -354,0 -688,-206 -841,-542 -56,-123 -83,-253 -83,-381 0,-379 234,-736 616,-871 2419,-854 8845,-3336 12307,-6678 863,-834 1426,-1611 1776,-2322 15250,10499 12035,14411 11901,14563 68,-44 129,-86 183,-123 -1481,1003 -8545,5584 -18697,8871 -65,21 -131,31 -196,31zm20775 -12478c0,-2442 -1970,-5010 -3871,-6811 -1784,-1690 -3766,-3165 -5773,-4576 -1676,-1180 -3321,-2514 -4848,-3987 130,136 354,399 559,773 -205,-374 -429,-636 -559,-773 1527,1473 3172,2807 4848,3987 2007,1411 3989,2886 5773,4576 1901,1801 3871,4369 3871,6811zm-13930 -14597c-1,0 -1,-2 -2,-2 1,0 1,2 2,2z"/>
    <path fill="url(#id1)" d="M30288 51916c134,-152 3350,-4064 -11901,-14563 813,-1651 468,-2942 36,-3734 -1,0 -1,-1 -2,-1 0,-1 0,-1 -1,-2 -205,-374 -429,-637 -559,-773 1527,1473 3172,2807 4848,3987 2007,1411 3989,2886 5773,4576 1902,1801 3872,4369 3871,6811 -1,1269 -533,2502 -1882,3576 -54,37 -115,79 -183,123z"/>
    <path fill="url(#id2)" d="M23134 17165l2 3c29,92 61,187 92,284 1365,4165 5358,6999 8858,9297 5375,3532 9277,9737 6522,16197 -572,1344 -1357,2550 -2280,3654l0 1c-1648,1982 -3728,3635 -5787,5156l-12 9c-28,19 -60,40 -94,63 3947,-3143 900,-7652 -1989,-10387 -1784,-1690 -3765,-3165 -5772,-4576 -1677,-1181 -3322,-2514 -4849,-3987l-4 -5c-30,-29 -62,-58 -91,-90l-14 -11c-3595,-3496 -6519,-7765 -7632,-12609 -2819,-12270 7565,-20182 18615,-20164l7087 0c-2477,215 -5676,723 -7437,1170 -1037,265 -2050,626 -3020,1081 -4074,1913 -7628,5518 -8990,9864 -198,630 -332,1279 -403,1937 -88,820 -94,1651 -15,2473 706,7243 7583,12541 12944,16595 2062,1559 4240,3048 5833,5119 1898,2471 2505,5629 1624,8361 923,-1104 1708,-2310 2280,-3654 2755,-6460 -1147,-12665 -6522,-16197 -3500,-2298 -7493,-5132 -8858,-9297l-88 -287z"/>
    <path fill="#3ADCDF" d="M45216 4694l-745 0c-699,0 -1267,567 -1267,1267 0,699 568,1267 1267,1267l745 0c700,0 1267,-568 1267,-1267 0,-700 -567,-1267 -1267,-1267z"/>
    <path fill="url(#id3)" d="M41864 5961c0,698 -568,1267 -1267,1267l-9797 0c-5181,95 -9256,5211 -7614,10224 1365,4165 5358,6999 8858,9297 5375,3532 9277,9737 6522,16197 -572,1344 -1357,2550 -2280,3654 881,-2732 274,-5890 -1624,-8361 -1593,-2071 -3771,-3560 -5833,-5119 -5361,-4054 -12238,-9352 -12944,-16595 -79,-822 -73,-1653 15,-2473 71,-658 205,-1307 404,-1937 1361,-4346 4915,-7951 8989,-9864 970,-455 1983,-816 3020,-1081 1761,-447 4961,-955 7437,-1170l3096 0c638,0 1155,518 1155,1155 0,638 -517,1155 -1155,1155l-2943 0c-193,0 -375,47 -536,128 -389,195 -656,599 -656,1064 0,90 11,176 29,259 117,534 594,933 1163,933l4694 0c699,0 1267,568 1267,1267z"/>
   </g>
   <path fill="#333333" fill-rule="nonzero" d="M56844 48669c-2227,0 -4212,-432 -5957,-1296 -1744,-864 -3099,-2185 -4062,-3963 -964,-1778 -1446,-4046 -1446,-6804l0 -15153 7776 0 0 14007c0,2226 474,3863 1421,4909 947,1047 2284,1571 4012,1571 1197,0 2260,-258 3190,-773 931,-515 1662,-1313 2193,-2393 532,-1080 798,-2434 798,-4062l0 -13259 7776 0 0 26817 -7377 0 0 -7377 1346 2143c-898,1861 -2219,3265 -3963,4212 -1745,947 -3647,1421 -5707,1421z"/>
   <path id="_1" fill="#333333" fill-rule="nonzero" d="M77384 48270l0 -26817 7776 0 0 26817 -7776 0zm3888 -30555c-1429,0 -2592,-415 -3489,-1246 -897,-831 -1346,-1861 -1346,-3091 0,-1229 449,-2259 1346,-3090 897,-831 2060,-1246 3489,-1246 1429,0 2592,390 3490,1171 897,781 1345,1786 1345,3016 0,1296 -440,2367 -1321,3215 -880,847 -2051,1271 -3514,1271z"/>
   <path id="_2" fill="#333333" fill-rule="nonzero" d="M100966 48669c-3157,0 -5616,-806 -7377,-2418 -1761,-1611 -2642,-4012 -2642,-7202l0 -23527 7776 0 0 23427c0,1130 299,2002 897,2617 598,614 1412,922 2442,922 1230,0 2277,-332 3141,-997l2093 5483c-797,565 -1753,988 -2866,1271 -1113,282 -2268,424 -3464,424zm-14156 -21234l0 -5982 18592 0 0 5982 -18592 0z"/>
   <path id="_3" fill="#333333" fill-rule="nonzero" d="M109295 48270l0 -26817 7776 0 0 26817 -7776 0zm3888 -30555c-1429,0 -2592,-415 -3490,-1246 -897,-831 -1345,-1861 -1345,-3091 0,-1229 448,-2259 1345,-3090 898,-831 2061,-1246 3490,-1246 1429,0 2592,390 3489,1171 897,781 1346,1786 1346,3016 0,1296 -441,2367 -1321,3215 -881,847 -2052,1271 -3514,1271z"/>
   <path id="_4" fill="#333333" fill-rule="nonzero" d="M122857 48270l0 -27415c0,-3024 897,-5441 2692,-7252 1794,-1811 4353,-2717 7676,-2717 1130,0 2218,116 3265,349 1047,233 1936,598 2667,1097l-2044 5632c-432,-299 -914,-532 -1446,-698 -531,-166 -1096,-249 -1694,-249 -1130,0 -2002,324 -2617,972 -615,648 -922,1620 -922,2916l0 2492 199 3340 0 21533 -7776 0zm-4137 -20237l0 -5982 18592 0 0 5982 -18592 0z"/>
   <path id="_5" fill="#333333" fill-rule="nonzero" d="M142202 58339c-1396,0 -2775,-216 -4137,-648 -1363,-432 -2476,-1031 -3340,-1795l2841 -5533c598,532 1288,947 2069,1246 781,300 1553,449 2318,449 1096,0 1969,-257 2616,-772 649,-516 1238,-1371 1770,-2567l1396 -3290 598 -848 9620 -23128 7477 0 -12113 28462c-864,2160 -1852,3854 -2965,5084 -1114,1229 -2343,2093 -3689,2592 -1346,498 -2833,748 -4461,748zm4586 -9022l-11963 -27864 8025 0 9271 22431 -5333 5433z"/>
  </g>
 </g>
</svg>
