<?xml version="1.0" encoding="UTF-8"?>
<!DOCTYPE svg PUBLIC "-//W3C//DTD SVG 1.1//EN" "http://www.w3.org/Graphics/SVG/1.1/DTD/svg11.dtd">
<!-- Creator: CorelDRAW (Evaluation Version) -->
<svg xmlns="http://www.w3.org/2000/svg" xml:space="preserve" width="2216px" height="2187px" version="1.1" shape-rendering="geometricPrecision" text-rendering="geometricPrecision" image-rendering="optimizeQuality" fill-rule="evenodd" clip-rule="evenodd"
viewBox="0 0 876765 865452"
 xmlns:xlink="http://www.w3.org/1999/xlink"
 xmlns:xodm="http://www.corel.com/coreldraw/odm/2003">
 <defs>
     <linearGradient id="id0" gradientUnits="userSpaceOnUse" x1="554157" y1="453020" x2="253599" y2="716914">
      <stop offset="0" stop-opacity="1" stop-color="#1985F1"/>
      <stop offset="1" stop-opacity="1" stop-color="#60E8B7"/>
     </linearGradient>
     <linearGradient id="id1" gradientUnits="userSpaceOnUse" x1="552542" y1="453397" x2="265250" y2="717290">
      <stop offset="0" stop-opacity="1" stop-color="#1985F1"/>
      <stop offset="1" stop-opacity="1" stop-color="#60E8B7"/>
     </linearGradient>
     <linearGradient id="id2" gradientUnits="userSpaceOnUse" x1="479758" y1="107751" x2="418100" y2="655540">
      <stop offset="0" stop-opacity="1" stop-color="#1985F1"/>
      <stop offset="1" stop-opacity="1" stop-color="#60E8B7"/>
     </linearGradient>
     <linearGradient id="id3" gradientUnits="userSpaceOnUse" x1="485736" y1="120699" x2="500565" y2="608637">
      <stop offset="0" stop-opacity="1" stop-color="#3ADCDF"/>
      <stop offset="1" stop-opacity="1" stop-color="#60E8B7"/>
     </linearGradient>
 </defs>
 <g id="Layer_x0020_1">
  <metadata id="CorelCorpID_0Corel-Layer"/>
  <g id="_2023039044624">
   <rect fill="#333333" width="876765" height="865452" rx="438383" ry="406038"/>
   <g>
    <path fill="#60E8B7" fill-rule="nonzero" d="M250745 767036c0,6899 5592,12486 12489,12486 6898,0 12490,-5587 12490,-12486 0,-6900 -5592,-12487 -12490,-12487 -6897,0 -12489,5587 -12489,12487z"/>
    <path fill="#60E8B7" fill-rule="nonzero" d="M213279 704592c0,4313 3495,7803 7805,7803 4311,0 7806,-3490 7806,-7803 0,-4312 -3495,-7815 -7806,-7815 -4310,0 -7805,3503 -7805,7815z"/>
    <path fill="#60E8B7" fill-rule="nonzero" d="M238257 688975c0,6900 5591,12486 12488,12486 6898,0 12489,-5586 12489,-12486 0,-6900 -5591,-12486 -12489,-12486 -6897,0 -12488,5586 -12488,12486z"/>
    <path fill="#60E8B7" fill-rule="nonzero" d="M186740 624966c0,6900 5592,12500 12489,12500 6897,0 12489,-5600 12489,-12500 0,-6886 -5592,-12485 -12489,-12485 -6897,0 -12489,5599 -12489,12485z"/>
    <path fill="url(#id0)" d="M308419 753917c-2504,0 -4885,-1407 -6063,-3742 -483,-995 -718,-2004 -718,-3012 0,-2880 1842,-5586 4808,-6488 13145,-3994 39871,-13349 54671,-27082 2871,-2667 3263,-7112 968,-10323 -1531,-2136 -3951,-3317 -6432,-3317 -1234,0 -2467,292 -3623,889 -13159,6833 -46739,22636 -87920,29695 -542,93 -1083,133 -1615,133 -4398,0 -8289,-3118 -9110,-7590 -95,-557 -157,-1101 -157,-1645 0,-4034 2655,-7683 6636,-8877 22651,-6635 89076,-29045 142074,-76508 3388,-3039 3701,-8253 704,-11690 -1640,-1871 -3935,-2839 -6261,-2839 -1920,0 -3855,663 -5416,2030 -14128,12274 -52064,41823 -106374,58210 -653,199 -1316,292 -1967,292 -2792,0 -5407,-1712 -6431,-4445 -296,-796 -438,-1606 -438,-2415 0,-2786 1702,-5400 4481,-6422 14595,-5308 50440,-19585 73511,-39183 3435,-2919 4106,-7961 1609,-11703 -1718,-2574 -4544,-3980 -7415,-3980 -1734,0 -3482,490 -5011,1552 -16580,11384 -61710,39050 -138767,62854 -727,226 -1465,332 -2190,332 -3099,0 -5980,-1951 -7004,-5042 -265,-783 -392,-1566 -392,-2349 0,-3131 2031,-6050 5199,-7032 21841,-6794 88765,-29629 138845,-68520 3028,-2336 3653,-6648 1436,-9753 -1373,-1937 -3559,-2985 -5776,-2985 -1249,0 -2497,331 -3637,1008 -12302,7338 -44649,24905 -92637,38121 -852,239 -1714,359 -2564,359 -3714,0 -7216,-2163 -8816,-5679 -592,-1287 -873,-2654 -873,-3995 0,-3967 2451,-7709 6461,-9128 25337,-8943 92669,-34951 128932,-69967 9043,-8731 14949,-16878 18612,-24321 159777,109998 126086,150985 124682,152577 717,-464 1357,-902 1920,-1287 -15517,10509 -89530,58502 -195887,92935 -679,226 -1372,332 -2055,332zm217656 -130738c9,-25582 -20631,-52491 -40555,-71359 -18686,-17701 -39450,-33159 -60477,-47941 -17562,-12366 -34797,-26338 -50798,-41769 1359,1419 3711,4179 5861,8093 -2150,-3914 -4502,-6660 -5861,-8093 16001,15431 33236,29403 50798,41769 21027,14782 41791,30240 60477,47941 19924,18868 40564,45777 40555,71359zm-145945 -152936c-4,0 -8,-13 -12,-13 4,0 8,13 12,13z"/>
    <path fill="url(#id1)" d="M504065 662314c1404,-1593 35095,-42580 -124682,-152578 8518,-17303 4903,-30824 370,-39117 -3,0 -8,-13 -11,-13 -5,-13 -8,-13 -12,-26 -2150,-3915 -4503,-6675 -5861,-8095 16001,15432 33236,29404 50798,41771 21027,14781 41790,30239 60477,47940 19924,18868 40564,45777 40554,71359 -5,13296 -5579,26220 -19713,37472 -563,384 -1204,822 -1920,1287z"/>
    <path fill="url(#id2)" d="M429114 298222l16 40c312,955 640,1951 968,2972 14299,43642 56137,73324 92807,97407 56309,37006 97193,102010 68330,169694 -5995,14079 -14222,26710 -23885,38281l0 13c-17265,20766 -39059,38082 -60633,54017l-125 93c-297,199 -625,425 -983,664 41354,-32933 9429,-80170 -20842,-108831 -18686,-17701 -39449,-33159 -60476,-47940 -17562,-12367 -34798,-26339 -50798,-41770l-47 -53c-313,-306 -641,-611 -953,-942l-140 -120c-37669,-36622 -68299,-81351 -79959,-132104 -29536,-128548 79257,-211438 195028,-211253l74245 0c-25945,2256 -59462,7577 -77914,12260 -10865,2774 -21482,6555 -31644,11319 -42680,20049 -79913,57812 -94181,103351 -2076,6594 -3481,13401 -4230,20288 -920,8597 -983,17302 -156,25913 7400,75885 79444,131388 135612,173862 21606,16334 44430,31938 61117,53632 19889,25887 26242,58980 17016,87601 9663,-11571 17891,-24202 23886,-38281 28864,-67684 -12022,-132688 -68331,-169694 -36669,-24083 -78507,-53765 -92807,-97407l-921 -3012z"/>
    <path fill="#3ADCDF" d="M660467 167564l-7805 0c-7328,0 -13270,5945 -13270,13283 0,7324 5942,13268 13270,13268l7805 0c7329,0 13270,-5944 13270,-13268 0,-7338 -5941,-13283 -13270,-13283z"/>
    <path fill="url(#id3)" d="M625343 180847c0,7310 -5948,13268 -13270,13268l-102642 0c-54280,996 -96976,54601 -79772,107119 14300,43642 56138,73324 92807,97407 56309,37006 97195,102010 68329,169694 -5994,14079 -14221,26710 -23884,38281 9226,-28621 2872,-61714 -17015,-87601 -16689,-21694 -39512,-37298 -61118,-53632 -56168,-42474 -128212,-97977 -135612,-173862 -828,-8611 -765,-17316 156,-25913 749,-6887 2154,-13694 4231,-20288 14267,-45539 51500,-83302 94180,-103351 10164,-4764 20779,-8545 31644,-11319 18452,-4683 51969,-10004 77914,-12260l32439 0c6683,0 12099,5427 12099,12102 0,6687 -5416,12100 -12099,12100l-30831 0c-2029,0 -3934,491 -5620,1341 -4074,2043 -6869,6276 -6869,11146 0,941 109,1844 297,2720 1233,5585 6229,9765 12192,9765l49174 0c7322,0 13270,5958 13270,13283z"/>
   </g>
  </g>
 </g>
</svg>
